<?xml version="1.0" encoding="utf-8" standalone="no"?>
<!DOCTYPE svg PUBLIC "-//W3C//DTD SVG 1.1//EN"
  "http://www.w3.org/Graphics/SVG/1.1/DTD/svg11.dtd">
<svg xmlns:xlink="http://www.w3.org/1999/xlink" width="567.686846pt" height="634.661875pt" viewBox="0 0 567.686846 634.661875" xmlns="http://www.w3.org/2000/svg" version="1.1">
 <metadata>
  <rdf:RDF xmlns:dc="http://purl.org/dc/elements/1.1/" xmlns:cc="http://creativecommons.org/ns#" xmlns:rdf="http://www.w3.org/1999/02/22-rdf-syntax-ns#">
   <cc:Work>
    <dc:type rdf:resource="http://purl.org/dc/dcmitype/StillImage"/>
    <dc:date>2026-06-24T11:19:48.534635</dc:date>
    <dc:format>image/svg+xml</dc:format>
    <dc:creator>
     <cc:Agent>
      <dc:title>Matplotlib v3.9.2, https://matplotlib.org/</dc:title>
     </cc:Agent>
    </dc:creator>
   </cc:Work>
  </rdf:RDF>
 </metadata>
 <defs>
  <style type="text/css">*{stroke-linejoin: round; stroke-linecap: butt}</style>
 </defs>
 <g id="figure_1">
  <g id="patch_1">
   <path d="M 0 634.661875 
L 567.686846 634.661875 
L 567.686846 0 
L 0 0 
z
" style="fill: #ffffff"/>
  </g>
  <g id="axes_1">
   <g id="patch_2">
    <path d="M 48.90125 595.17 
L 526.05567 595.17 
L 526.05567 23.21 
L 48.90125 23.21 
z
" style="fill: #ffffff"/>
   </g>
   <g id="patch_3">
    <path d="M 370.980483 595.17 
L 430.624786 595.17 
L 430.624786 23.21 
L 370.980483 23.21 
z
" clip-path="url(#p874b230ca1)" style="fill: #9467bd; opacity: 0.08; stroke: #9467bd; stroke-linejoin: miter"/>
   </g>
   <g id="matplotlib.axis_1">
    <g id="xtick_1">
     <g id="line2d_1">
      <path d="M 48.90125 595.17 
L 48.90125 23.21 
" clip-path="url(#p874b230ca1)" style="fill: none; stroke-dasharray: 0.8,1.32; stroke-dashoffset: 0; stroke: #b0b0b0; stroke-opacity: 0.5; stroke-width: 0.8"/>
     </g>
     <g id="line2d_2">
      <defs>
       <path id="m24ca96dedb" d="M 0 0 
L 0 3.5 
" style="stroke: #000000; stroke-width: 0.8"/>
      </defs>
      <g>
       <use xlink:href="#m24ca96dedb" x="48.90125" y="595.17" style="stroke: #000000; stroke-width: 0.8"/>
      </g>
     </g>
     <g id="text_1">
      <text style="font: 10px 'DejaVu Sans', 'Arial', 'Helvetica', sans-serif; text-anchor: middle" x="48.90125" y="609.768437" transform="rotate(-0 48.90125 609.768437)">27</text>
     </g>
    </g>
    <g id="xtick_2">
     <g id="line2d_3">
      <path d="M 108.545552 595.17 
L 108.545552 23.21 
" clip-path="url(#p874b230ca1)" style="fill: none; stroke-dasharray: 0.8,1.32; stroke-dashoffset: 0; stroke: #b0b0b0; stroke-opacity: 0.5; stroke-width: 0.8"/>
     </g>
     <g id="line2d_4">
      <g>
       <use xlink:href="#m24ca96dedb" x="108.545552" y="595.17" style="stroke: #000000; stroke-width: 0.8"/>
      </g>
     </g>
     <g id="text_2">
      <text style="font: 10px 'DejaVu Sans', 'Arial', 'Helvetica', sans-serif; text-anchor: middle" x="108.545552" y="609.768437" transform="rotate(-0 108.545552 609.768437)">28</text>
     </g>
    </g>
    <g id="xtick_3">
     <g id="line2d_5">
      <path d="M 168.189855 595.17 
L 168.189855 23.21 
" clip-path="url(#p874b230ca1)" style="fill: none; stroke-dasharray: 0.8,1.32; stroke-dashoffset: 0; stroke: #b0b0b0; stroke-opacity: 0.5; stroke-width: 0.8"/>
     </g>
     <g id="line2d_6">
      <g>
       <use xlink:href="#m24ca96dedb" x="168.189855" y="595.17" style="stroke: #000000; stroke-width: 0.8"/>
      </g>
     </g>
     <g id="text_3">
      <text style="font: 10px 'DejaVu Sans', 'Arial', 'Helvetica', sans-serif; text-anchor: middle" x="168.189855" y="609.768437" transform="rotate(-0 168.189855 609.768437)">29</text>
     </g>
    </g>
    <g id="xtick_4">
     <g id="line2d_7">
      <path d="M 227.834157 595.17 
L 227.834157 23.21 
" clip-path="url(#p874b230ca1)" style="fill: none; stroke-dasharray: 0.8,1.32; stroke-dashoffset: 0; stroke: #b0b0b0; stroke-opacity: 0.5; stroke-width: 0.8"/>
     </g>
     <g id="line2d_8">
      <g>
       <use xlink:href="#m24ca96dedb" x="227.834157" y="595.17" style="stroke: #000000; stroke-width: 0.8"/>
      </g>
     </g>
     <g id="text_4">
      <text style="font: 10px 'DejaVu Sans', 'Arial', 'Helvetica', sans-serif; text-anchor: middle" x="227.834157" y="609.768437" transform="rotate(-0 227.834157 609.768437)">30</text>
     </g>
    </g>
    <g id="xtick_5">
     <g id="line2d_9">
      <path d="M 287.47846 595.17 
L 287.47846 23.21 
" clip-path="url(#p874b230ca1)" style="fill: none; stroke-dasharray: 0.8,1.32; stroke-dashoffset: 0; stroke: #b0b0b0; stroke-opacity: 0.5; stroke-width: 0.8"/>
     </g>
     <g id="line2d_10">
      <g>
       <use xlink:href="#m24ca96dedb" x="287.47846" y="595.17" style="stroke: #000000; stroke-width: 0.8"/>
      </g>
     </g>
     <g id="text_5">
      <text style="font: 10px 'DejaVu Sans', 'Arial', 'Helvetica', sans-serif; text-anchor: middle" x="287.47846" y="609.768437" transform="rotate(-0 287.47846 609.768437)">31</text>
     </g>
    </g>
    <g id="xtick_6">
     <g id="line2d_11">
      <path d="M 347.122762 595.17 
L 347.122762 23.21 
" clip-path="url(#p874b230ca1)" style="fill: none; stroke-dasharray: 0.8,1.32; stroke-dashoffset: 0; stroke: #b0b0b0; stroke-opacity: 0.5; stroke-width: 0.8"/>
     </g>
     <g id="line2d_12">
      <g>
       <use xlink:href="#m24ca96dedb" x="347.122762" y="595.17" style="stroke: #000000; stroke-width: 0.8"/>
      </g>
     </g>
     <g id="text_6">
      <text style="font: 10px 'DejaVu Sans', 'Arial', 'Helvetica', sans-serif; text-anchor: middle" x="347.122762" y="609.768437" transform="rotate(-0 347.122762 609.768437)">32</text>
     </g>
    </g>
    <g id="xtick_7">
     <g id="line2d_13">
      <path d="M 406.767065 595.17 
L 406.767065 23.21 
" clip-path="url(#p874b230ca1)" style="fill: none; stroke-dasharray: 0.8,1.32; stroke-dashoffset: 0; stroke: #b0b0b0; stroke-opacity: 0.5; stroke-width: 0.8"/>
     </g>
     <g id="line2d_14">
      <g>
       <use xlink:href="#m24ca96dedb" x="406.767065" y="595.17" style="stroke: #000000; stroke-width: 0.8"/>
      </g>
     </g>
     <g id="text_7">
      <text style="font: 10px 'DejaVu Sans', 'Arial', 'Helvetica', sans-serif; text-anchor: middle" x="406.767065" y="609.768437" transform="rotate(-0 406.767065 609.768437)">33</text>
     </g>
    </g>
    <g id="xtick_8">
     <g id="line2d_15">
      <path d="M 466.411367 595.17 
L 466.411367 23.21 
" clip-path="url(#p874b230ca1)" style="fill: none; stroke-dasharray: 0.8,1.32; stroke-dashoffset: 0; stroke: #b0b0b0; stroke-opacity: 0.5; stroke-width: 0.8"/>
     </g>
     <g id="line2d_16">
      <g>
       <use xlink:href="#m24ca96dedb" x="466.411367" y="595.17" style="stroke: #000000; stroke-width: 0.8"/>
      </g>
     </g>
     <g id="text_8">
      <text style="font: 10px 'DejaVu Sans', 'Arial', 'Helvetica', sans-serif; text-anchor: middle" x="466.411367" y="609.768437" transform="rotate(-0 466.411367 609.768437)">34</text>
     </g>
    </g>
    <g id="xtick_9">
     <g id="line2d_17">
      <path d="M 526.05567 595.17 
L 526.05567 23.21 
" clip-path="url(#p874b230ca1)" style="fill: none; stroke-dasharray: 0.8,1.32; stroke-dashoffset: 0; stroke: #b0b0b0; stroke-opacity: 0.5; stroke-width: 0.8"/>
     </g>
     <g id="line2d_18">
      <g>
       <use xlink:href="#m24ca96dedb" x="526.05567" y="595.17" style="stroke: #000000; stroke-width: 0.8"/>
      </g>
     </g>
     <g id="text_9">
      <text style="font: 10px 'DejaVu Sans', 'Arial', 'Helvetica', sans-serif; text-anchor: middle" x="526.05567" y="609.768437" transform="rotate(-0 526.05567 609.768437)">35</text>
     </g>
    </g>
    <g id="text_10">
     <!-- 2$\theta$ (°) -->
     <g transform="translate(270.37846 624.96625)">
      <text>
       <tspan style="font: 12px 'DejaVu Sans'" x="0 14.976562 18.791016 23.472656 29.472656" y="-0.78125">2 (°)</tspan>
       <tspan style="font: oblique 12px 'DejaVu Sans'" x="7.634766" y="-0.78125">θ</tspan>
      </text>
     </g>
    </g>
   </g>
   <g id="matplotlib.axis_2">
    <g id="ytick_1">
     <g id="line2d_19">
      <defs>
       <path id="m699db55a88" d="M 0 0 
L -3.5 0 
" style="stroke: #000000; stroke-width: 0.8"/>
      </defs>
      <g>
       <use xlink:href="#m699db55a88" x="48.90125" y="585.308621" style="stroke: #000000; stroke-width: 0.8"/>
      </g>
     </g>
     <g id="text_11">
      <text style="font: 10px 'DejaVu Sans', 'Arial', 'Helvetica', sans-serif; text-anchor: end" x="41.90125" y="589.107839" transform="rotate(-0 41.90125 589.107839)">0</text>
     </g>
    </g>
    <g id="ytick_2">
     <g id="line2d_20">
      <g>
       <use xlink:href="#m699db55a88" x="48.90125" y="486.694828" style="stroke: #000000; stroke-width: 0.8"/>
      </g>
     </g>
     <g id="text_12">
      <text style="font: 10px 'DejaVu Sans', 'Arial', 'Helvetica', sans-serif; text-anchor: end" x="41.90125" y="490.494046" transform="rotate(-0 41.90125 490.494046)">100</text>
     </g>
    </g>
    <g id="ytick_3">
     <g id="line2d_21">
      <g>
       <use xlink:href="#m699db55a88" x="48.90125" y="388.081034" style="stroke: #000000; stroke-width: 0.8"/>
      </g>
     </g>
     <g id="text_13">
      <text style="font: 10px 'DejaVu Sans', 'Arial', 'Helvetica', sans-serif; text-anchor: end" x="41.90125" y="391.880253" transform="rotate(-0 41.90125 391.880253)">200</text>
     </g>
    </g>
    <g id="ytick_4">
     <g id="line2d_22">
      <g>
       <use xlink:href="#m699db55a88" x="48.90125" y="289.467241" style="stroke: #000000; stroke-width: 0.8"/>
      </g>
     </g>
     <g id="text_14">
      <text style="font: 10px 'DejaVu Sans', 'Arial', 'Helvetica', sans-serif; text-anchor: end" x="41.90125" y="293.26646" transform="rotate(-0 41.90125 293.26646)">300</text>
     </g>
    </g>
    <g id="ytick_5">
     <g id="line2d_23">
      <g>
       <use xlink:href="#m699db55a88" x="48.90125" y="190.853448" style="stroke: #000000; stroke-width: 0.8"/>
      </g>
     </g>
     <g id="text_15">
      <text style="font: 10px 'DejaVu Sans', 'Arial', 'Helvetica', sans-serif; text-anchor: end" x="41.90125" y="194.652667" transform="rotate(-0 41.90125 194.652667)">400</text>
     </g>
    </g>
    <g id="ytick_6">
     <g id="line2d_24">
      <g>
       <use xlink:href="#m699db55a88" x="48.90125" y="92.239655" style="stroke: #000000; stroke-width: 0.8"/>
      </g>
     </g>
     <g id="text_16">
      <text style="font: 10px 'DejaVu Sans', 'Arial', 'Helvetica', sans-serif; text-anchor: end" x="41.90125" y="96.038874" transform="rotate(-0 41.90125 96.038874)">500</text>
     </g>
    </g>
    <g id="text_17">
     <text style="font: 12px 'DejaVu Sans', 'Arial', 'Helvetica', sans-serif; text-anchor: middle" x="16.318125" y="309.19" transform="rotate(-90 16.318125 309.19)">Intensity (kcounts, stacked)</text>
    </g>
   </g>
   <g id="line2d_25">
    <path d="M 48.907214 427.101003 
L 50.1001 427.744134 
L 51.292987 427.048414 
L 52.485873 427.666074 
L 54.871645 427.991778 
L 56.064531 427.926446 
L 57.257417 428.576234 
L 58.450303 428.066648 
L 59.643189 428.665141 
L 60.836075 428.43272 
L 62.028961 429.284789 
L 63.221847 429.542896 
L 64.414733 429.482202 
L 65.607619 429.126853 
L 66.800505 429.018101 
L 67.993391 429.562896 
L 70.379163 430.135103 
L 71.572049 430.773596 
L 72.764935 430.309865 
L 73.957821 430.301498 
L 75.150708 431.179916 
L 76.343594 430.764597 
L 78.729366 431.249715 
L 79.922252 430.750714 
L 81.115138 431.437298 
L 82.308024 431.96844 
L 83.50091 431.925836 
L 84.693796 432.297333 
L 85.886682 431.906114 
L 87.079568 431.894727 
L 88.272454 432.360723 
L 89.46534 432.596101 
L 90.658226 432.552465 
L 94.236884 433.25703 
L 95.42977 433.127569 
L 96.622656 433.800978 
L 97.815542 433.778343 
L 99.008429 433.308679 
L 102.587087 433.965416 
L 104.972859 434.718193 
L 106.165745 433.792318 
L 107.358631 434.633494 
L 108.551517 434.235711 
L 109.744403 435.31906 
L 113.323061 435.044544 
L 114.515947 435.086239 
L 115.708833 435.374977 
L 116.901719 435.215392 
L 118.094605 435.193312 
L 119.287491 435.71125 
L 120.480377 435.855057 
L 122.86615 435.151817 
L 124.059036 435.899926 
L 125.251922 435.808508 
L 126.444808 436.29757 
L 127.637694 436.602873 
L 128.83058 436.180575 
L 130.023466 436.236384 
L 131.216352 436.96514 
L 132.409238 436.968113 
L 133.602124 437.255357 
L 134.79501 437.3728 
L 135.987896 437.028191 
L 137.180782 437.512415 
L 138.373668 437.413417 
L 139.566554 438.167073 
L 140.75944 437.849783 
L 141.952326 437.299718 
L 143.145212 437.685714 
L 144.338098 437.512554 
L 145.530984 438.047427 
L 146.723871 438.222527 
L 147.916757 438.7927 
L 149.109643 438.36678 
L 150.302529 438.362991 
L 151.495415 437.94459 
L 152.688301 439.079081 
L 153.881187 438.227797 
L 155.074073 439.022485 
L 157.459845 439.230114 
L 159.845617 438.904534 
L 161.038503 439.439468 
L 163.424275 439.267449 
L 164.617161 439.024997 
L 167.002933 439.158588 
L 168.195819 439.502873 
L 169.388705 438.457767 
L 170.581592 438.934411 
L 171.774478 438.379893 
L 172.967364 439.029296 
L 174.16025 438.46655 
L 175.353136 438.691205 
L 176.546022 436.934277 
L 177.738908 436.89913 
L 180.12468 435.236286 
L 181.317566 433.652887 
L 182.510452 432.831218 
L 183.703338 432.256994 
L 184.896224 431.829872 
L 186.08911 430.940099 
L 188.474882 430.129416 
L 189.667768 429.104973 
L 190.860654 429.645007 
L 192.05354 428.79095 
L 193.246426 429.108194 
L 194.439313 429.725146 
L 195.632199 431.240748 
L 196.825085 431.778178 
L 198.017971 433.231113 
L 199.210857 433.218756 
L 200.403743 435.08909 
L 201.596629 436.401639 
L 202.789515 437.338901 
L 203.982401 438.683423 
L 205.175287 439.761549 
L 206.368173 440.558811 
L 207.561059 441.525705 
L 209.946831 442.699747 
L 212.332603 443.433819 
L 213.525489 444.737093 
L 214.718375 444.682563 
L 215.911261 444.78865 
L 217.104147 445.055877 
L 218.297034 445.761921 
L 220.682806 446.018163 
L 221.875692 445.919673 
L 224.261464 447.171175 
L 225.45435 446.939416 
L 229.033008 447.655907 
L 230.225894 448.217698 
L 231.41878 448.016679 
L 232.611666 448.108699 
L 233.804552 448.785976 
L 234.997438 447.774321 
L 236.190324 448.387946 
L 237.38321 448.395572 
L 239.768982 449.950326 
L 240.961868 449.414623 
L 242.154755 450.220729 
L 243.347641 449.771297 
L 245.733413 449.821097 
L 246.926299 450.48298 
L 248.119185 450.891041 
L 249.312071 450.492795 
L 250.504957 451.027158 
L 252.890729 450.330498 
L 254.083615 451.412461 
L 255.276501 450.669329 
L 257.662273 451.103507 
L 258.855159 451.516083 
L 260.048045 452.414963 
L 261.240931 451.515436 
L 262.433817 452.012372 
L 263.626703 452.202867 
L 264.819589 452.737461 
L 266.012476 451.992202 
L 267.205362 452.467259 
L 268.398248 452.538215 
L 269.591134 453.034489 
L 270.78402 453.209821 
L 271.976906 453.209805 
L 273.169792 453.62218 
L 274.362678 453.716449 
L 275.555564 453.573752 
L 276.74845 453.871797 
L 277.941336 453.990072 
L 279.134222 453.913831 
L 280.327108 454.21072 
L 281.519994 453.708437 
L 282.71288 454.160519 
L 283.905766 454.237823 
L 285.098652 454.55707 
L 287.484424 454.263216 
L 288.67731 454.789567 
L 289.870197 455.188784 
L 291.063083 455.352206 
L 292.255969 454.896749 
L 293.448855 455.294701 
L 295.834627 455.615689 
L 297.027513 455.922994 
L 298.220399 455.788433 
L 299.413285 456.106239 
L 300.606171 455.978943 
L 301.799057 456.281186 
L 302.991943 456.369838 
L 304.184829 456.065322 
L 305.377715 455.914011 
L 306.570601 456.405185 
L 307.763487 456.244228 
L 308.956373 456.55638 
L 310.149259 456.555987 
L 311.342145 457.321261 
L 312.535031 456.590409 
L 313.727918 457.319559 
L 314.920804 456.739732 
L 316.11369 457.183063 
L 317.306576 457.380869 
L 318.499462 457.266053 
L 319.692348 457.631185 
L 320.885234 458.274787 
L 322.07812 458.11615 
L 323.271006 458.25169 
L 324.463892 458.082961 
L 325.656778 458.915314 
L 326.849664 459.586474 
L 328.04255 459.640403 
L 329.235436 459.457752 
L 330.428322 460.291678 
L 331.621208 460.293511 
L 332.814094 460.171492 
L 334.00698 460.429036 
L 336.392752 460.64376 
L 338.778525 460.580485 
L 339.971411 460.640863 
L 341.164297 461.208679 
L 342.357183 461.243224 
L 343.550069 460.895156 
L 345.935841 461.639413 
L 347.128727 461.479913 
L 348.321613 461.997049 
L 349.514499 462.052982 
L 350.707385 462.729742 
L 351.900271 461.969753 
L 353.093157 462.128298 
L 354.286043 462.115841 
L 355.478929 462.391297 
L 356.671815 463.109104 
L 359.057587 462.728578 
L 360.250473 463.553476 
L 361.44336 463.555494 
L 362.636246 463.157918 
L 363.829132 463.371425 
L 365.022018 463.432034 
L 366.214904 464.68483 
L 367.40779 464.155913 
L 368.600676 464.230012 
L 369.793562 463.808292 
L 370.986448 464.426023 
L 373.37222 463.865496 
L 374.565106 464.481347 
L 375.757992 464.742773 
L 376.950878 465.35491 
L 378.143764 465.310249 
L 379.33665 465.004184 
L 380.529536 465.371613 
L 381.722422 465.289101 
L 382.915308 466.231256 
L 384.108194 465.732817 
L 386.493967 465.594365 
L 388.879739 466.429732 
L 392.458397 467.108534 
L 393.651283 467.42721 
L 394.844169 467.305669 
L 396.037055 467.0615 
L 398.422827 467.46805 
L 399.615713 467.582211 
L 400.808599 468.207261 
L 402.001485 467.935041 
L 404.387257 468.28572 
L 405.580143 468.124757 
L 406.773029 468.690353 
L 407.965915 469.085093 
L 409.158802 468.448625 
L 410.351688 469.04463 
L 411.544574 468.983105 
L 412.73746 469.572191 
L 413.930346 469.322737 
L 415.123232 469.571251 
L 416.316118 470.003881 
L 417.509004 470.184999 
L 418.70189 470.079697 
L 419.894776 470.532774 
L 421.087662 470.671974 
L 422.280548 470.664308 
L 423.473434 470.44698 
L 425.859206 470.791358 
L 427.052092 470.402943 
L 428.244978 471.128818 
L 431.823636 471.338156 
L 436.595181 472.074131 
L 437.788067 471.993514 
L 438.980953 472.282854 
L 440.173839 472.734188 
L 441.366725 472.707223 
L 442.559611 473.056401 
L 443.752497 472.819105 
L 444.945383 472.824736 
L 446.138269 473.150146 
L 447.331155 473.165716 
L 449.716927 473.609448 
L 450.909813 473.287335 
L 452.102699 473.835488 
L 453.295585 473.772615 
L 454.488471 473.470819 
L 455.681357 473.426566 
L 458.06713 474.591718 
L 459.260016 474.726433 
L 460.452902 475.274572 
L 461.645788 474.636557 
L 464.03156 474.263211 
L 465.224446 474.912429 
L 466.417332 475.322909 
L 468.803104 475.881502 
L 469.99599 475.979406 
L 471.188876 475.607772 
L 472.381762 475.860924 
L 473.574648 475.824884 
L 474.767534 476.085362 
L 475.96042 476.813317 
L 477.153306 476.106149 
L 480.731965 476.857439 
L 481.924851 476.97177 
L 484.310623 477.593522 
L 485.503509 477.138535 
L 487.889281 477.550524 
L 489.082167 477.446102 
L 490.275053 477.794163 
L 491.467939 477.866458 
L 492.660825 478.244426 
L 493.853711 478.397972 
L 495.046597 478.270182 
L 496.239483 478.284966 
L 497.432369 478.98782 
L 498.625255 478.352933 
L 499.818141 479.083453 
L 501.011027 478.875632 
L 502.203913 479.222275 
L 503.396799 479.908588 
L 504.589686 479.534765 
L 505.782572 479.656029 
L 506.975458 480.087126 
L 508.168344 479.822864 
L 509.36123 479.698187 
L 510.554116 480.212018 
L 511.747002 479.897332 
L 512.939888 480.159514 
L 514.132774 480.224138 
L 515.32566 480.651259 
L 516.518546 480.685873 
L 517.711432 480.467498 
L 518.904318 480.933248 
L 520.097204 480.926345 
L 521.29009 481.294189 
L 522.482976 481.48154 
L 523.675862 481.19207 
L 524.868748 481.764932 
L 526.061634 481.49691 
L 526.061634 481.49691 
" clip-path="url(#p874b230ca1)" style="fill: none; stroke: #440154; stroke-width: 1.5; stroke-linecap: square"/>
   </g>
   <g id="line2d_26">
    <path d="M 48.90125 585.308621 
L 526.05567 585.308621 
" clip-path="url(#p874b230ca1)" style="fill: none; stroke-dasharray: 1.85,0.8; stroke-dashoffset: 0; stroke: #808080; stroke-opacity: 0.5; stroke-width: 0.5"/>
   </g>
   <g id="line2d_27">
    <path d="M 48.907214 362.659277 
L 50.1001 362.537904 
L 51.292987 363.219681 
L 52.485873 363.317786 
L 53.678759 363.687387 
L 54.871645 363.844415 
L 57.257417 365.148258 
L 58.450303 364.76875 
L 59.643189 365.050569 
L 60.836075 365.897215 
L 62.028961 366.159697 
L 63.221847 366.842705 
L 64.414733 366.713414 
L 65.607619 367.191289 
L 66.800505 367.936039 
L 67.993391 367.52821 
L 69.186277 368.2943 
L 70.379163 368.628138 
L 71.572049 367.8659 
L 72.764935 368.25524 
L 73.957821 368.929019 
L 75.150708 369.140622 
L 76.343594 368.672361 
L 77.53648 369.659778 
L 78.729366 369.398821 
L 81.115138 369.13825 
L 82.308024 369.94266 
L 83.50091 369.677282 
L 84.693796 369.976914 
L 85.886682 371.229309 
L 87.079568 370.678751 
L 88.272454 370.729137 
L 89.46534 371.006103 
L 90.658226 370.448595 
L 93.043998 371.693548 
L 94.236884 371.424364 
L 95.42977 370.728181 
L 96.622656 371.717571 
L 97.815542 372.428807 
L 99.008429 371.756568 
L 100.201315 372.750642 
L 101.394201 372.059298 
L 103.779973 372.097942 
L 106.165745 372.915605 
L 107.358631 373.217163 
L 108.551517 373.329613 
L 109.744403 372.757838 
L 110.937289 373.58644 
L 112.130175 374.142437 
L 113.323061 373.804946 
L 114.515947 373.291754 
L 115.708833 373.563205 
L 116.901719 373.224681 
L 118.094605 374.228355 
L 119.287491 374.402793 
L 120.480377 374.805199 
L 121.673263 374.535058 
L 122.86615 374.569789 
L 124.059036 374.076443 
L 125.251922 374.522208 
L 126.444808 375.313106 
L 127.637694 373.53627 
L 128.83058 373.887335 
L 130.023466 374.793781 
L 131.216352 373.918768 
L 132.409238 373.670924 
L 134.79501 373.802404 
L 135.987896 374.116489 
L 137.180782 373.382818 
L 138.373668 373.306916 
L 139.566554 374.604412 
L 140.75944 374.613688 
L 141.952326 374.408263 
L 143.145212 374.694751 
L 145.530984 376.233927 
L 146.723871 376.168751 
L 147.916757 377.177493 
L 149.109643 376.798908 
L 150.302529 376.924163 
L 151.495415 377.471423 
L 152.688301 377.699853 
L 153.881187 377.751872 
L 156.266959 377.287739 
L 157.459845 377.878775 
L 159.845617 377.927619 
L 161.038503 378.618024 
L 162.231389 377.695384 
L 164.617161 377.453842 
L 167.002933 378.158129 
L 168.195819 377.824846 
L 169.388705 377.781009 
L 171.774478 377.03555 
L 172.967364 376.904594 
L 175.353136 376.054497 
L 176.546022 375.519163 
L 177.738908 374.853381 
L 178.931794 373.937197 
L 180.12468 373.509321 
L 181.317566 372.001285 
L 182.510452 370.84208 
L 183.703338 369.87605 
L 184.896224 368.627291 
L 186.08911 367.620475 
L 187.281996 367.046066 
L 188.474882 365.920789 
L 190.860654 365.559154 
L 192.05354 365.887738 
L 193.246426 366.073071 
L 196.825085 368.502652 
L 198.017971 370.194542 
L 199.210857 371.420588 
L 200.403743 373.123032 
L 201.596629 374.100033 
L 202.789515 375.588239 
L 205.175287 377.885092 
L 206.368173 379.089275 
L 207.561059 380.482441 
L 208.753945 380.861349 
L 209.946831 381.499011 
L 211.139717 382.47917 
L 213.525489 383.207001 
L 214.718375 384.268486 
L 215.911261 383.91189 
L 217.104147 384.674729 
L 218.297034 384.620446 
L 219.48992 384.989723 
L 220.682806 385.013052 
L 221.875692 385.518216 
L 223.068578 385.617276 
L 224.261464 385.387275 
L 225.45435 386.231733 
L 226.647236 385.882671 
L 227.840122 386.676127 
L 234.997438 388.137568 
L 236.190324 387.887105 
L 237.38321 388.839528 
L 238.576096 388.297877 
L 239.768982 388.250311 
L 240.961868 388.069062 
L 242.154755 388.863396 
L 243.347641 389.796036 
L 244.540527 388.883535 
L 245.733413 388.810376 
L 246.926299 388.924475 
L 248.119185 390.017917 
L 249.312071 389.524094 
L 250.504957 389.920891 
L 251.697843 390.147903 
L 252.890729 390.50285 
L 254.083615 391.075796 
L 255.276501 390.385331 
L 256.469387 391.105889 
L 257.662273 390.73809 
L 258.855159 390.73108 
L 260.048045 391.011251 
L 261.240931 391.533273 
L 263.626703 391.127168 
L 264.819589 391.496431 
L 266.012476 391.577741 
L 267.205362 392.462384 
L 268.398248 392.229902 
L 269.591134 392.610613 
L 270.78402 392.311582 
L 271.976906 392.757454 
L 273.169792 392.551583 
L 274.362678 393.013389 
L 275.555564 393.193497 
L 276.74845 393.247457 
L 277.941336 393.555348 
L 279.134222 394.067338 
L 280.327108 394.289389 
L 281.519994 394.333796 
L 282.71288 394.054981 
L 283.905766 394.23341 
L 285.098652 394.03646 
L 287.484424 394.172655 
L 288.67731 394.156137 
L 289.870197 394.257802 
L 292.255969 395.761863 
L 293.448855 395.182214 
L 295.834627 395.233832 
L 297.027513 395.788627 
L 298.220399 395.677301 
L 299.413285 396.17903 
L 300.606171 396.266287 
L 301.799057 395.774066 
L 302.991943 395.627686 
L 304.184829 395.863219 
L 306.570601 395.978751 
L 307.763487 396.146025 
L 308.956373 395.86872 
L 310.149259 396.386088 
L 311.342145 395.750276 
L 312.535031 397.01952 
L 313.727918 396.698632 
L 314.920804 397.413505 
L 316.11369 396.820081 
L 317.306576 397.818769 
L 318.499462 397.834662 
L 319.692348 398.374465 
L 320.885234 398.54321 
L 322.07812 398.260567 
L 323.271006 398.341861 
L 324.463892 398.876232 
L 325.656778 398.985701 
L 326.849664 399.866169 
L 328.04255 399.866392 
L 329.235436 400.226926 
L 330.428322 399.83056 
L 331.621208 399.82462 
L 334.00698 400.391341 
L 336.392752 400.368637 
L 337.585639 400.138644 
L 338.778525 401.003655 
L 339.971411 401.178456 
L 341.164297 400.970405 
L 342.357183 401.196253 
L 343.550069 401.195713 
L 344.742955 401.877428 
L 345.935841 402.340411 
L 347.128727 401.943307 
L 348.321613 402.44911 
L 349.514499 401.707504 
L 350.707385 402.179703 
L 351.900271 402.318601 
L 353.093157 402.761724 
L 354.286043 402.79677 
L 355.478929 403.170254 
L 356.671815 402.953366 
L 357.864701 403.840743 
L 359.057587 403.304023 
L 360.250473 403.022426 
L 361.44336 403.369192 
L 362.636246 403.916144 
L 363.829132 403.866823 
L 365.022018 403.66733 
L 368.600676 404.234552 
L 369.793562 404.670386 
L 370.986448 404.309175 
L 372.179334 404.370461 
L 373.37222 404.889794 
L 374.565106 404.794856 
L 375.757992 405.266198 
L 376.950878 404.760664 
L 378.143764 405.494759 
L 379.33665 405.0925 
L 380.529536 405.444266 
L 381.722422 405.123686 
L 382.915308 405.252994 
L 385.301081 405.216275 
L 386.493967 405.419659 
L 390.072625 405.674691 
L 391.265511 405.998807 
L 392.458397 405.467933 
L 393.651283 406.328099 
L 394.844169 406.430735 
L 396.037055 406.139061 
L 397.229941 407.095692 
L 399.615713 406.863996 
L 402.001485 407.66192 
L 403.194371 408.350314 
L 404.387257 407.816259 
L 405.580143 407.828146 
L 406.773029 408.120028 
L 407.965915 408.055674 
L 409.158802 408.857073 
L 410.351688 409.0039 
L 413.930346 409.86476 
L 415.123232 409.622632 
L 416.316118 410.392629 
L 417.509004 410.060509 
L 418.70189 410.057658 
L 421.087662 410.591443 
L 422.280548 410.493993 
L 423.473434 409.848435 
L 424.66632 411.46708 
L 427.052092 411.352503 
L 428.244978 411.543051 
L 429.437864 411.120591 
L 430.63075 411.890595 
L 431.823636 411.705987 
L 433.016523 412.042153 
L 434.209409 412.031582 
L 435.402295 412.324049 
L 436.595181 412.108886 
L 438.980953 411.989756 
L 440.173839 412.573504 
L 442.559611 412.629998 
L 443.752497 413.597369 
L 444.945383 413.669418 
L 446.138269 412.978722 
L 447.331155 413.406928 
L 448.524041 413.59428 
L 449.716927 413.961901 
L 450.909813 413.775336 
L 452.102699 414.053897 
L 453.295585 414.007155 
L 454.488471 414.268374 
L 455.681357 414.188751 
L 456.874244 414.375825 
L 458.06713 414.388583 
L 459.260016 414.603476 
L 461.645788 415.379451 
L 462.838674 414.749524 
L 464.03156 415.504583 
L 465.224446 415.391924 
L 466.417332 415.995386 
L 467.610218 416.292268 
L 468.803104 416.29139 
L 469.99599 415.600638 
L 471.188876 416.044463 
L 472.381762 416.011219 
L 473.574648 416.339449 
L 474.767534 416.136319 
L 475.96042 416.307638 
L 477.153306 416.878635 
L 478.346192 417.143043 
L 479.539078 416.865407 
L 480.731965 417.243814 
L 481.924851 417.463407 
L 483.117737 417.474062 
L 484.310623 417.755319 
L 485.503509 417.262798 
L 486.696395 418.223257 
L 487.889281 418.249475 
L 489.082167 417.585087 
L 490.275053 418.027062 
L 491.467939 418.017454 
L 492.660825 418.559337 
L 493.853711 418.2411 
L 496.239483 419.156637 
L 497.432369 418.641249 
L 498.625255 419.13555 
L 499.818141 419.320498 
L 502.203913 419.085096 
L 503.396799 419.84416 
L 504.589686 419.80275 
L 505.782572 419.575299 
L 506.975458 419.209565 
L 508.168344 419.860631 
L 509.36123 420.287544 
L 510.554116 419.833274 
L 511.747002 420.654102 
L 514.132774 420.118059 
L 515.32566 420.946615 
L 516.518546 421.079736 
L 517.711432 420.953627 
L 518.904318 420.680366 
L 520.097204 421.525478 
L 521.29009 421.63484 
L 522.482976 421.118712 
L 523.675862 421.393821 
L 524.868748 421.953909 
L 526.061634 422.147662 
L 526.061634 422.147662 
" clip-path="url(#p874b230ca1)" style="fill: none; stroke: #46327e; stroke-width: 1.5; stroke-linecap: square"/>
   </g>
   <g id="line2d_28">
    <path d="M 48.90125 526.140345 
L 526.05567 526.140345 
" clip-path="url(#p874b230ca1)" style="fill: none; stroke-dasharray: 1.85,0.8; stroke-dashoffset: 0; stroke: #808080; stroke-opacity: 0.5; stroke-width: 0.5"/>
   </g>
   <g id="line2d_29">
    <path d="M 48.907214 299.109312 
L 50.1001 299.400902 
L 51.292987 299.178944 
L 52.485873 299.744062 
L 53.678759 299.229544 
L 54.871645 300.093185 
L 56.064531 299.993431 
L 57.257417 300.173433 
L 58.450303 300.804638 
L 59.643189 300.304374 
L 60.836075 301.296613 
L 62.028961 300.963977 
L 63.221847 302.127388 
L 64.414733 302.161163 
L 65.607619 302.081024 
L 67.993391 303.290846 
L 69.186277 303.557442 
L 70.379163 303.487688 
L 71.572049 304.238725 
L 72.764935 303.29741 
L 73.957821 303.34177 
L 76.343594 304.719374 
L 77.53648 304.838143 
L 78.729366 304.161883 
L 79.922252 304.892411 
L 81.115138 304.9799 
L 82.308024 305.911938 
L 83.50091 305.447483 
L 84.693796 306.335115 
L 85.886682 305.864759 
L 87.079568 305.539887 
L 88.272454 305.978749 
L 89.46534 306.800541 
L 90.658226 306.916073 
L 91.851112 307.234704 
L 93.043998 306.968724 
L 94.236884 307.254335 
L 95.42977 306.985489 
L 96.622656 307.776648 
L 97.815542 307.6156 
L 99.008429 307.826911 
L 100.201315 307.715663 
L 101.394201 307.996773 
L 102.587087 307.960979 
L 103.779973 308.437546 
L 104.972859 308.344849 
L 106.165745 308.022505 
L 107.358631 308.580721 
L 108.551517 308.908488 
L 109.744403 309.001324 
L 112.130175 309.516058 
L 113.323061 309.488199 
L 114.515947 310.193811 
L 115.708833 309.73065 
L 116.901719 309.545672 
L 118.094605 310.41563 
L 119.287491 310.18415 
L 120.480377 309.782068 
L 121.673263 310.45389 
L 122.86615 310.063132 
L 124.059036 310.231408 
L 125.251922 311.015665 
L 126.444808 310.915063 
L 127.637694 311.149703 
L 128.83058 311.570214 
L 131.216352 311.96943 
L 132.409238 311.73325 
L 133.602124 312.25464 
L 134.79501 312.589141 
L 135.987896 312.408708 
L 137.180782 311.963867 
L 138.373668 312.483547 
L 139.566554 312.498185 
L 140.75944 312.784642 
L 141.952326 313.226032 
L 143.145212 312.523839 
L 144.338098 312.89039 
L 145.530984 313.411256 
L 146.723871 313.501272 
L 147.916757 313.728993 
L 149.109643 313.469083 
L 150.302529 313.827237 
L 151.495415 313.539608 
L 152.688301 313.743508 
L 153.881187 314.074895 
L 155.074073 314.139919 
L 156.266959 313.93511 
L 158.652731 314.425036 
L 161.038503 314.304358 
L 162.231389 315.134177 
L 163.424275 315.25632 
L 164.617161 314.511447 
L 165.810047 314.215991 
L 167.002933 314.421185 
L 168.195819 313.944787 
L 169.388705 314.081784 
L 170.581592 313.302365 
L 171.774478 313.611565 
L 172.967364 313.271594 
L 174.16025 312.537322 
L 175.353136 312.232543 
L 176.546022 311.218671 
L 177.738908 310.737266 
L 178.931794 308.882556 
L 180.12468 307.358973 
L 181.317566 305.266111 
L 182.510452 304.513334 
L 184.896224 300.863251 
L 186.08911 299.580225 
L 188.474882 297.712803 
L 189.667768 297.122076 
L 192.05354 298.136334 
L 194.439313 300.269396 
L 195.632199 301.662424 
L 198.017971 305.558115 
L 199.210857 306.796627 
L 201.596629 311.051058 
L 202.789515 312.315888 
L 205.175287 315.469942 
L 206.368173 316.329392 
L 207.561059 316.844726 
L 208.753945 317.762974 
L 209.946831 319.18742 
L 211.139717 319.908117 
L 212.332603 320.275084 
L 213.525489 321.405491 
L 214.718375 321.052823 
L 215.911261 321.439143 
L 217.104147 322.375758 
L 218.297034 322.947749 
L 219.48992 322.668719 
L 220.682806 323.390447 
L 221.875692 323.448861 
L 224.261464 323.914981 
L 227.840122 324.776711 
L 229.033008 324.641533 
L 230.225894 324.8491 
L 231.41878 325.360443 
L 232.611666 325.432447 
L 233.804552 325.270042 
L 237.38321 326.306504 
L 238.576096 326.003991 
L 239.768982 326.578631 
L 240.961868 326.844504 
L 242.154755 326.340757 
L 243.347641 327.114104 
L 244.540527 327.393983 
L 245.733413 327.541934 
L 246.926299 328.07317 
L 248.119185 327.414245 
L 250.504957 328.437317 
L 251.697843 328.272493 
L 252.890729 328.930139 
L 254.083615 329.201928 
L 255.276501 329.158861 
L 256.469387 329.532284 
L 257.662273 329.374657 
L 258.855159 329.618417 
L 260.048045 329.225025 
L 261.240931 329.943442 
L 262.433817 329.576861 
L 263.626703 330.734109 
L 264.819589 331.152432 
L 266.012476 330.611674 
L 267.205362 330.968224 
L 268.398248 330.89371 
L 269.591134 330.364677 
L 270.78402 331.274513 
L 271.976906 331.234497 
L 273.169792 331.339551 
L 275.555564 332.170158 
L 276.74845 332.058971 
L 277.941336 332.070881 
L 279.134222 332.830484 
L 280.327108 332.542502 
L 281.519994 333.104261 
L 282.71288 332.804768 
L 285.098652 333.154924 
L 287.484424 333.708594 
L 288.67731 333.273121 
L 289.870197 334.34396 
L 291.063083 334.542066 
L 292.255969 333.548131 
L 293.448855 334.110491 
L 294.641741 334.19288 
L 295.834627 335.126691 
L 297.027513 334.452974 
L 298.220399 334.899402 
L 299.413285 333.995822 
L 300.606171 334.489923 
L 301.799057 334.8531 
L 302.991943 334.202988 
L 304.184829 334.042741 
L 305.377715 334.507304 
L 306.570601 334.616843 
L 307.763487 334.314976 
L 308.956373 334.168643 
L 310.149259 334.695348 
L 311.342145 334.974379 
L 312.535031 335.476107 
L 313.727918 335.346955 
L 314.920804 336.111196 
L 316.11369 336.229563 
L 317.306576 337.216056 
L 318.499462 336.701353 
L 319.692348 336.719334 
L 320.885234 337.563377 
L 322.07812 337.298398 
L 323.271006 337.881044 
L 324.463892 337.782915 
L 325.656778 338.485939 
L 326.849664 338.978176 
L 328.04255 338.798638 
L 329.235436 339.171336 
L 330.428322 339.059109 
L 331.621208 339.095203 
L 332.814094 339.679128 
L 335.199866 340.137427 
L 336.392752 340.133067 
L 337.585639 340.502969 
L 338.778525 340.417098 
L 339.971411 340.125177 
L 341.164297 340.916584 
L 342.357183 340.325341 
L 344.742955 341.540509 
L 345.935841 341.410162 
L 347.128727 341.696404 
L 348.321613 341.766058 
L 349.514499 341.616896 
L 351.900271 342.305251 
L 354.286043 342.005334 
L 355.478929 342.141067 
L 356.671815 341.929533 
L 357.864701 343.22843 
L 359.057587 342.722735 
L 360.250473 342.937543 
L 361.44336 343.350149 
L 362.636246 343.396736 
L 363.829132 343.302776 
L 368.600676 343.488694 
L 369.793562 344.323429 
L 370.986448 344.644864 
L 372.179334 343.957711 
L 373.37222 343.96734 
L 374.565106 344.482005 
L 375.757992 344.511596 
L 376.950878 344.932723 
L 378.143764 344.689571 
L 379.33665 344.696844 
L 380.529536 345.155776 
L 381.722422 344.943401 
L 384.108194 344.997246 
L 385.301081 345.099766 
L 386.493967 344.965736 
L 387.686853 345.59446 
L 388.879739 345.209135 
L 390.072625 345.625632 
L 391.265511 345.255891 
L 392.458397 346.181321 
L 393.651283 345.716325 
L 394.844169 345.965141 
L 396.037055 346.480282 
L 397.229941 346.172222 
L 398.422827 347.415796 
L 399.615713 347.119746 
L 400.808599 346.96114 
L 402.001485 347.670165 
L 404.387257 348.065475 
L 405.580143 348.006392 
L 406.773029 349.061937 
L 407.965915 348.933361 
L 409.158802 348.631349 
L 413.930346 349.879306 
L 415.123232 349.630399 
L 416.316118 349.822997 
L 417.509004 350.245749 
L 419.894776 350.283431 
L 421.087662 350.91771 
L 423.473434 351.745719 
L 424.66632 350.911107 
L 425.859206 350.551814 
L 427.052092 351.511627 
L 429.437864 351.333938 
L 430.63075 351.580895 
L 431.823636 352.213749 
L 433.016523 352.212925 
L 434.209409 351.506519 
L 438.980953 352.618375 
L 440.173839 352.270676 
L 441.366725 352.905703 
L 442.559611 353.166837 
L 443.752497 353.621901 
L 444.945383 353.074478 
L 446.138269 353.95738 
L 447.331155 353.546322 
L 448.524041 353.668303 
L 449.716927 354.221843 
L 450.909813 353.989283 
L 452.102699 354.499617 
L 453.295585 354.794141 
L 454.488471 354.758571 
L 455.681357 355.37748 
L 458.06713 355.112718 
L 459.260016 355.31087 
L 461.645788 355.039528 
L 462.838674 355.572743 
L 464.03156 355.927421 
L 465.224446 355.459838 
L 466.417332 355.982106 
L 467.610218 355.732259 
L 468.803104 356.223432 
L 471.188876 356.399666 
L 472.381762 357.001172 
L 473.574648 356.613759 
L 474.767534 356.748535 
L 475.96042 357.086226 
L 479.539078 357.611329 
L 480.731965 357.420558 
L 481.924851 357.716538 
L 483.117737 358.435286 
L 484.310623 358.495017 
L 485.503509 358.38883 
L 486.696395 357.716437 
L 487.889281 358.502559 
L 489.082167 358.195855 
L 492.660825 359.123595 
L 493.853711 359.084481 
L 495.046597 359.429783 
L 496.239483 359.260722 
L 497.432369 358.705434 
L 498.625255 359.651687 
L 499.818141 359.944585 
L 501.011027 359.655255 
L 502.203913 360.086967 
L 503.396799 360.123385 
L 504.589686 359.814007 
L 505.782572 359.847489 
L 506.975458 360.49804 
L 508.168344 360.428933 
L 509.36123 361.036602 
L 510.554116 360.954768 
L 511.747002 361.042018 
L 512.939888 361.354917 
L 514.132774 361.182766 
L 515.32566 361.280279 
L 516.518546 361.582692 
L 517.711432 361.627862 
L 518.904318 361.804711 
L 521.29009 361.804696 
L 522.482976 362.572073 
L 523.675862 362.346355 
L 524.868748 362.353158 
L 526.061634 362.655224 
L 526.061634 362.655224 
" clip-path="url(#p874b230ca1)" style="fill: none; stroke: #375b8d; stroke-width: 1.5; stroke-linecap: square"/>
   </g>
   <g id="line2d_30">
    <path d="M 48.90125 466.972069 
L 526.05567 466.972069 
" clip-path="url(#p874b230ca1)" style="fill: none; stroke-dasharray: 1.85,0.8; stroke-dashoffset: 0; stroke: #808080; stroke-opacity: 0.5; stroke-width: 0.5"/>
   </g>
   <g id="line2d_31">
    <path d="M 48.907214 238.310904 
L 50.1001 238.71348 
L 51.292987 238.89553 
L 52.485873 239.282913 
L 54.871645 240.543213 
L 56.064531 240.134351 
L 57.257417 240.318774 
L 58.450303 239.800265 
L 60.836075 240.797421 
L 62.028961 240.759238 
L 63.221847 241.633835 
L 64.414733 241.622911 
L 65.607619 240.923369 
L 66.800505 241.889831 
L 67.993391 241.707426 
L 69.186277 242.57119 
L 70.379163 242.541729 
L 71.572049 243.449377 
L 73.957821 242.792039 
L 76.343594 243.384893 
L 77.53648 243.194445 
L 78.729366 244.067577 
L 79.922252 243.742584 
L 81.115138 243.982862 
L 82.308024 244.436424 
L 83.50091 244.227687 
L 85.886682 245.044547 
L 87.079568 244.941881 
L 88.272454 245.110818 
L 89.46534 245.150526 
L 90.658226 244.918476 
L 91.851112 245.592362 
L 93.043998 245.224333 
L 94.236884 245.925107 
L 95.42977 245.816462 
L 96.622656 246.106187 
L 97.815542 245.879282 
L 99.008429 246.460996 
L 101.394201 247.274313 
L 102.587087 246.678886 
L 103.779973 247.043927 
L 104.972859 246.728301 
L 107.358631 247.490755 
L 108.551517 247.617967 
L 109.744403 247.547874 
L 110.937289 248.292762 
L 112.130175 248.815477 
L 113.323061 249.002813 
L 114.515947 248.72221 
L 115.708833 248.999485 
L 116.901719 249.08967 
L 118.094605 250.059413 
L 119.287491 249.579302 
L 121.673263 249.500088 
L 122.86615 249.611337 
L 124.059036 250.083574 
L 125.251922 250.139321 
L 126.444808 249.99368 
L 127.637694 250.573438 
L 128.83058 250.236641 
L 130.023466 250.915858 
L 131.216352 251.105767 
L 132.409238 250.815195 
L 134.79501 251.213995 
L 135.987896 251.664707 
L 137.180782 251.545461 
L 138.373668 251.936542 
L 139.566554 252.157452 
L 140.75944 252.210087 
L 143.145212 251.813644 
L 144.338098 252.152245 
L 145.530984 252.24907 
L 150.302529 253.226256 
L 151.495415 253.201542 
L 152.688301 252.954252 
L 153.881187 252.88778 
L 155.074073 253.471173 
L 156.266959 253.182928 
L 157.459845 253.373576 
L 158.652731 253.380556 
L 159.845617 252.980231 
L 161.038503 253.761868 
L 162.231389 254.149051 
L 163.424275 254.163734 
L 164.617161 254.012517 
L 165.810047 254.412473 
L 167.002933 253.735042 
L 168.195819 253.421496 
L 169.388705 253.987585 
L 170.581592 254.061962 
L 174.16025 252.342692 
L 175.353136 252.743988 
L 176.546022 251.55805 
L 178.931794 250.294068 
L 180.12468 249.320734 
L 181.317566 247.678768 
L 182.510452 246.724911 
L 184.896224 242.635905 
L 186.08911 241.979446 
L 187.281996 240.921011 
L 188.474882 240.402951 
L 189.667768 240.245338 
L 190.860654 240.395939 
L 192.05354 240.918608 
L 193.246426 242.544103 
L 195.632199 244.002015 
L 196.825085 245.29236 
L 198.017971 247.070136 
L 202.789515 252.703233 
L 203.982401 253.809233 
L 205.175287 254.446494 
L 206.368173 256.180956 
L 207.561059 257.109498 
L 208.753945 257.645033 
L 209.946831 258.370182 
L 212.332603 259.354117 
L 213.525489 260.273182 
L 214.718375 260.834927 
L 215.911261 260.698902 
L 217.104147 261.336485 
L 218.297034 261.463559 
L 219.48992 262.081559 
L 220.682806 262.048432 
L 221.875692 262.896078 
L 223.068578 262.420483 
L 224.261464 263.080302 
L 226.647236 263.753016 
L 227.840122 264.444947 
L 229.033008 263.775344 
L 230.225894 263.887209 
L 231.41878 264.734332 
L 232.611666 264.897954 
L 234.997438 265.547819 
L 236.190324 265.42902 
L 237.38321 265.801103 
L 239.768982 266.364048 
L 240.961868 265.943661 
L 242.154755 266.984868 
L 243.347641 267.00151 
L 246.926299 267.44179 
L 248.119185 267.623593 
L 249.312071 267.344609 
L 250.504957 268.375569 
L 251.697843 267.654564 
L 252.890729 267.759587 
L 254.083615 268.012208 
L 255.276501 267.948279 
L 256.469387 268.28939 
L 257.662273 268.931012 
L 258.855159 269.306545 
L 260.048045 269.093585 
L 261.240931 269.405514 
L 263.626703 269.41314 
L 266.012476 269.893606 
L 267.205362 270.385826 
L 268.398248 270.158245 
L 269.591134 270.702439 
L 270.78402 270.674427 
L 271.976906 271.116124 
L 273.169792 271.285909 
L 274.362678 271.578392 
L 275.555564 271.243505 
L 276.74845 271.44933 
L 277.941336 271.129653 
L 279.134222 272.131414 
L 280.327108 271.908624 
L 281.519994 271.882537 
L 282.71288 272.455222 
L 283.905766 272.739121 
L 285.098652 272.525129 
L 286.291538 272.88732 
L 287.484424 273.410019 
L 288.67731 273.000171 
L 289.870197 273.202052 
L 291.063083 273.78979 
L 294.641741 273.95993 
L 295.834627 273.879759 
L 297.027513 273.960993 
L 299.413285 274.756436 
L 300.606171 274.602768 
L 301.799057 274.117388 
L 302.991943 273.929636 
L 304.184829 274.328822 
L 305.377715 273.99993 
L 306.570601 274.929149 
L 307.763487 274.769749 
L 308.956373 274.764018 
L 310.149259 274.011594 
L 311.342145 274.527175 
L 312.535031 274.624633 
L 313.727918 274.906021 
L 314.920804 275.464113 
L 316.11369 276.227338 
L 317.306576 276.484042 
L 318.499462 276.254426 
L 320.885234 276.84369 
L 322.07812 277.411397 
L 323.271006 276.603272 
L 326.849664 278.240477 
L 328.04255 278.325331 
L 329.235436 278.15399 
L 330.428322 278.715002 
L 332.814094 279.361439 
L 334.00698 279.442418 
L 338.778525 280.266421 
L 339.971411 279.92527 
L 341.164297 280.343832 
L 342.357183 280.540359 
L 343.550069 280.46569 
L 344.742955 281.039167 
L 345.935841 281.085539 
L 347.128727 281.282027 
L 348.321613 281.043898 
L 349.514499 281.094807 
L 350.707385 281.624848 
L 351.900271 281.989804 
L 353.093157 282.618236 
L 354.286043 282.174751 
L 355.478929 282.240807 
L 356.671815 282.67346 
L 357.864701 282.316686 
L 359.057587 282.805748 
L 360.250473 282.527342 
L 361.44336 283.041243 
L 362.636246 283.042722 
L 363.829132 283.546184 
L 365.022018 283.307585 
L 366.214904 283.775092 
L 367.40779 283.309766 
L 368.600676 283.665145 
L 369.793562 283.885454 
L 370.986448 283.707395 
L 373.37222 283.833874 
L 374.565106 284.388585 
L 376.950878 284.820998 
L 378.143764 284.720405 
L 380.529536 285.328898 
L 381.722422 285.024906 
L 382.915308 285.050307 
L 384.108194 285.537073 
L 385.301081 285.46514 
L 386.493967 285.612944 
L 387.686853 285.386749 
L 388.879739 285.877083 
L 390.072625 285.646127 
L 391.265511 286.335467 
L 392.458397 285.75454 
L 396.037055 286.85591 
L 397.229941 287.268624 
L 398.422827 286.896896 
L 399.615713 287.389649 
L 400.808599 287.201096 
L 403.194371 288.09966 
L 404.387257 288.233922 
L 405.580143 288.083258 
L 406.773029 288.375479 
L 409.158802 288.25242 
L 410.351688 288.576497 
L 411.544574 288.616759 
L 412.73746 289.100375 
L 413.930346 289.41184 
L 415.123232 289.873476 
L 417.509004 290.120172 
L 418.70189 290.42227 
L 419.894776 290.874992 
L 422.280548 290.416145 
L 423.473434 290.474496 
L 424.66632 290.666747 
L 425.859206 291.287806 
L 428.244978 291.352891 
L 429.437864 291.180779 
L 430.63075 291.805067 
L 431.823636 292.133342 
L 433.016523 291.95479 
L 434.209409 291.538192 
L 435.402295 292.699078 
L 436.595181 292.294244 
L 437.788067 292.927931 
L 438.980953 292.316556 
L 440.173839 292.861914 
L 441.366725 292.380093 
L 442.559611 292.970288 
L 443.752497 293.126106 
L 446.138269 293.770038 
L 447.331155 293.859946 
L 448.524041 293.346377 
L 449.716927 293.763282 
L 450.909813 294.337584 
L 453.295585 294.178461 
L 454.488471 294.590228 
L 455.681357 295.120053 
L 456.874244 294.542093 
L 458.06713 294.972696 
L 459.260016 295.844696 
L 460.452902 295.59971 
L 461.645788 295.224022 
L 465.224446 295.700896 
L 466.417332 296.136893 
L 471.188876 296.678282 
L 474.767534 297.259557 
L 475.96042 297.38794 
L 477.153306 297.978721 
L 478.346192 297.487548 
L 479.539078 298.375256 
L 480.731965 297.986649 
L 481.924851 297.426646 
L 483.117737 298.200063 
L 484.310623 298.197266 
L 485.503509 298.018999 
L 486.696395 298.717908 
L 487.889281 298.283961 
L 490.275053 298.887486 
L 491.467939 298.938341 
L 492.660825 298.826315 
L 496.239483 299.298073 
L 497.432369 299.587389 
L 498.625255 299.709116 
L 499.818141 299.565193 
L 503.396799 300.531162 
L 504.589686 299.830658 
L 508.168344 300.741617 
L 509.36123 301.181635 
L 511.747002 301.118931 
L 512.939888 301.436513 
L 515.32566 301.51502 
L 516.518546 302.050061 
L 517.711432 301.280943 
L 518.904318 302.000353 
L 521.29009 301.908697 
L 522.482976 302.346603 
L 523.675862 302.656035 
L 524.868748 302.036856 
L 526.061634 302.4736 
L 526.061634 302.4736 
" clip-path="url(#p874b230ca1)" style="fill: none; stroke: #277e8e; stroke-width: 1.5; stroke-linecap: square"/>
   </g>
   <g id="line2d_32">
    <path d="M 48.90125 407.803793 
L 526.05567 407.803793 
" clip-path="url(#p874b230ca1)" style="fill: none; stroke-dasharray: 1.85,0.8; stroke-dashoffset: 0; stroke: #808080; stroke-opacity: 0.5; stroke-width: 0.5"/>
   </g>
   <g id="line2d_33">
    <path d="M 48.907214 177.334622 
L 50.1001 178.072268 
L 51.292987 178.611285 
L 52.485873 178.347586 
L 53.678759 177.879371 
L 54.871645 178.529266 
L 56.064531 178.657573 
L 57.257417 179.4379 
L 58.450303 179.59126 
L 59.643189 179.134015 
L 60.836075 179.649196 
L 62.028961 179.715744 
L 63.221847 179.90026 
L 64.414733 179.879813 
L 65.607619 180.412528 
L 66.800505 180.270956 
L 67.993391 180.276872 
L 69.186277 180.767862 
L 70.379163 180.716413 
L 71.572049 181.357217 
L 72.764935 180.780373 
L 75.150708 181.365476 
L 76.343594 181.739222 
L 77.53648 181.515662 
L 78.729366 182.204464 
L 79.922252 181.8842 
L 81.115138 182.178193 
L 82.308024 182.288408 
L 83.50091 182.996333 
L 84.693796 182.887673 
L 85.886682 182.984653 
L 87.079568 183.544794 
L 88.272454 183.415965 
L 89.46534 183.918387 
L 90.658226 183.94922 
L 91.851112 184.335786 
L 93.043998 183.985552 
L 94.236884 184.443968 
L 95.42977 184.648345 
L 96.622656 184.254614 
L 97.815542 185.10445 
L 99.008429 185.097422 
L 100.201315 185.474913 
L 101.394201 184.950488 
L 102.587087 185.488242 
L 103.779973 186.286951 
L 104.972859 186.4529 
L 106.165745 186.214717 
L 107.358631 186.582716 
L 108.551517 186.773595 
L 109.744403 187.165092 
L 110.937289 186.974444 
L 112.130175 186.525875 
L 113.323061 187.347605 
L 114.515947 187.044706 
L 115.708833 187.332674 
L 116.901719 187.786467 
L 118.094605 188.447765 
L 120.480377 188.087239 
L 121.673263 189.274179 
L 122.86615 188.776272 
L 124.059036 188.576209 
L 126.444808 189.311221 
L 127.637694 189.108354 
L 128.83058 189.505058 
L 130.023466 190.083382 
L 131.216352 190.005123 
L 132.409238 190.060408 
L 133.602124 189.546292 
L 134.79501 190.214739 
L 135.987896 190.578362 
L 137.180782 190.417282 
L 138.373668 190.720843 
L 139.566554 190.902678 
L 140.75944 190.707084 
L 143.145212 190.947578 
L 144.338098 191.213327 
L 145.530984 190.906423 
L 147.916757 191.767706 
L 149.109643 191.827552 
L 150.302529 192.256661 
L 151.495415 191.566903 
L 153.881187 192.513966 
L 155.074073 191.893023 
L 156.266959 192.80842 
L 157.459845 192.810269 
L 159.845617 193.441907 
L 161.038503 192.710823 
L 162.231389 192.941256 
L 163.424275 193.809289 
L 165.810047 193.073615 
L 167.002933 193.693541 
L 168.195819 192.977589 
L 169.388705 192.812288 
L 170.581592 192.858667 
L 171.774478 192.69728 
L 172.967364 192.870747 
L 174.16025 192.892412 
L 175.353136 192.460175 
L 176.546022 191.791944 
L 177.738908 191.420231 
L 180.12468 189.736847 
L 181.317566 188.734715 
L 182.510452 187.386002 
L 183.703338 186.383778 
L 184.896224 185.637179 
L 186.08911 184.693122 
L 187.281996 183.573131 
L 189.667768 182.9002 
L 190.860654 183.65008 
L 192.05354 183.32541 
L 193.246426 184.125506 
L 194.439313 184.781365 
L 195.632199 186.009708 
L 198.017971 188.025282 
L 199.210857 189.709975 
L 200.403743 190.9816 
L 201.596629 192.001991 
L 202.789515 193.684357 
L 203.982401 194.124699 
L 205.175287 194.932824 
L 207.561059 197.436936 
L 208.753945 198.496649 
L 209.946831 199.062908 
L 211.139717 198.935079 
L 212.332603 199.509243 
L 213.525489 199.84245 
L 214.718375 200.902379 
L 215.911261 201.209252 
L 217.104147 201.353799 
L 218.297034 201.914942 
L 219.48992 201.523754 
L 221.875692 202.064388 
L 223.068578 203.112268 
L 224.261464 203.099248 
L 225.45435 203.734536 
L 226.647236 203.524935 
L 227.840122 203.927758 
L 229.033008 203.979298 
L 230.225894 203.54586 
L 231.41878 204.502137 
L 232.611666 204.089422 
L 233.804552 204.560996 
L 234.997438 205.378367 
L 236.190324 205.222896 
L 237.38321 205.49527 
L 238.576096 206.111282 
L 239.768982 205.943994 
L 240.961868 206.501115 
L 243.347641 206.667649 
L 245.733413 207.593325 
L 246.926299 206.868821 
L 248.119185 207.167945 
L 249.312071 207.000101 
L 250.504957 208.168119 
L 251.697843 207.845837 
L 252.890729 208.476473 
L 254.083615 207.954252 
L 255.276501 208.568476 
L 258.855159 208.309092 
L 260.048045 208.839325 
L 263.626703 209.07307 
L 264.819589 209.908561 
L 266.012476 209.50805 
L 267.205362 209.472102 
L 269.591134 210.706393 
L 270.78402 210.428486 
L 271.976906 210.769228 
L 273.169792 210.398286 
L 274.362678 211.409077 
L 275.555564 211.260679 
L 276.74845 211.886399 
L 277.941336 211.341511 
L 279.134222 211.94566 
L 280.327108 212.335045 
L 281.519994 211.85492 
L 282.71288 212.318327 
L 283.905766 212.131454 
L 285.098652 212.569207 
L 286.291538 212.839501 
L 287.484424 212.686958 
L 288.67731 212.991398 
L 289.870197 213.138702 
L 291.063083 213.472324 
L 292.255969 213.618504 
L 293.448855 213.63325 
L 294.641741 213.351183 
L 295.834627 214.118584 
L 297.027513 213.766687 
L 298.220399 214.260233 
L 299.413285 214.164054 
L 300.606171 214.590605 
L 301.799057 213.966426 
L 302.991943 214.576706 
L 304.184829 214.467477 
L 305.377715 215.084768 
L 307.763487 215.016339 
L 308.956373 215.368067 
L 310.149259 216.095051 
L 311.342145 215.584601 
L 312.535031 215.470117 
L 313.727918 215.877777 
L 314.920804 215.624756 
L 317.306576 216.469198 
L 319.692348 216.840602 
L 320.885234 216.898814 
L 322.07812 217.587185 
L 324.463892 217.866494 
L 325.656778 218.188483 
L 326.849664 218.247944 
L 328.04255 218.53471 
L 330.428322 218.720011 
L 331.621208 219.254667 
L 332.814094 219.19305 
L 334.00698 219.247257 
L 335.199866 219.186331 
L 336.392752 219.680471 
L 337.585639 219.791858 
L 338.778525 220.114634 
L 339.971411 220.894969 
L 341.164297 220.08119 
L 343.550069 221.190349 
L 344.742955 221.537639 
L 345.935841 220.774884 
L 347.128727 221.189316 
L 348.321613 220.934268 
L 349.514499 221.340827 
L 350.707385 221.533378 
L 351.900271 221.585089 
L 353.093157 222.035853 
L 354.286043 222.364924 
L 355.478929 222.069414 
L 356.671815 222.750866 
L 357.864701 222.913039 
L 359.057587 222.320833 
L 360.250473 223.102462 
L 362.636246 223.864223 
L 363.829132 223.250213 
L 365.022018 223.221138 
L 366.214904 223.383665 
L 367.40779 223.846318 
L 368.600676 224.162745 
L 370.986448 223.959547 
L 373.37222 224.917272 
L 374.565106 224.265751 
L 375.757992 224.971055 
L 376.950878 224.745476 
L 378.143764 225.314246 
L 379.33665 225.321273 
L 380.529536 225.4687 
L 381.722422 225.251519 
L 384.108194 226.069189 
L 385.301081 226.550924 
L 386.493967 226.193596 
L 387.686853 226.014997 
L 388.879739 226.812513 
L 390.072625 226.792105 
L 391.265511 226.525955 
L 392.458397 226.606257 
L 393.651283 226.520724 
L 394.844169 227.019602 
L 397.229941 226.962815 
L 398.422827 227.601739 
L 399.615713 227.327801 
L 400.808599 227.719483 
L 402.001485 227.763482 
L 403.194371 228.252606 
L 404.387257 228.600297 
L 405.580143 228.451105 
L 409.158802 229.284468 
L 410.351688 229.368775 
L 411.544574 228.828565 
L 412.73746 229.654987 
L 413.930346 229.410509 
L 415.123232 230.625038 
L 416.316118 229.956622 
L 417.509004 230.47429 
L 418.70189 230.47805 
L 419.894776 230.599669 
L 421.087662 230.964393 
L 422.280548 230.912297 
L 423.473434 231.045349 
L 425.859206 231.681454 
L 427.052092 231.273563 
L 428.244978 231.820499 
L 430.63075 231.926517 
L 431.823636 231.876008 
L 433.016523 232.792793 
L 434.209409 232.616697 
L 436.595181 232.655581 
L 437.788067 232.136864 
L 438.980953 232.50182 
L 440.173839 232.594063 
L 441.366725 233.473074 
L 442.559611 233.519646 
L 443.752497 233.946906 
L 444.945383 233.492704 
L 446.138269 234.18495 
L 447.331155 233.855387 
L 449.716927 234.720169 
L 450.909813 234.410791 
L 452.102699 235.082212 
L 453.295585 234.74825 
L 454.488471 235.174046 
L 455.681357 235.481467 
L 456.874244 235.091442 
L 458.06713 234.993152 
L 459.260016 235.557623 
L 461.645788 236.156071 
L 462.838674 236.10483 
L 464.03156 235.61374 
L 465.224446 236.348429 
L 467.610218 236.041247 
L 468.803104 236.609093 
L 469.99599 236.695033 
L 471.188876 237.151561 
L 472.381762 236.301757 
L 473.574648 237.122593 
L 474.767534 237.179196 
L 475.96042 237.927613 
L 477.153306 238.076566 
L 478.346192 237.662951 
L 479.539078 237.586054 
L 480.731965 238.167013 
L 483.117737 238.482724 
L 484.310623 238.270057 
L 485.503509 238.375836 
L 486.696395 238.749166 
L 487.889281 238.863735 
L 489.082167 239.38125 
L 490.275053 239.447066 
L 491.467939 238.91167 
L 492.660825 239.828417 
L 493.853711 239.512806 
L 495.046597 240.412974 
L 496.239483 239.729395 
L 499.818141 239.551389 
L 501.011027 240.474353 
L 502.203913 240.291964 
L 504.589686 241.060026 
L 506.975458 240.762752 
L 508.168344 241.027006 
L 509.36123 240.495886 
L 511.747002 241.671031 
L 512.939888 241.780608 
L 514.132774 241.459636 
L 515.32566 242.235949 
L 516.518546 242.023182 
L 517.711432 241.439505 
L 518.904318 242.125572 
L 521.29009 242.759281 
L 522.482976 243.060831 
L 523.675862 242.56713 
L 524.868748 242.634781 
L 526.061634 242.57938 
L 526.061634 242.57938 
" clip-path="url(#p874b230ca1)" style="fill: none; stroke: #1fa188; stroke-width: 1.5; stroke-linecap: square"/>
   </g>
   <g id="line2d_34">
    <path d="M 48.90125 348.635517 
L 526.05567 348.635517 
" clip-path="url(#p874b230ca1)" style="fill: none; stroke-dasharray: 1.85,0.8; stroke-dashoffset: 0; stroke: #808080; stroke-opacity: 0.5; stroke-width: 0.5"/>
   </g>
   <g id="line2d_35">
    <path d="M 48.907214 97.235014 
L 51.292987 97.921505 
L 52.485873 97.679669 
L 53.678759 97.148912 
L 54.871645 97.857699 
L 56.064531 98.022183 
L 57.257417 97.921998 
L 58.450303 98.663311 
L 59.643189 99.218677 
L 62.028961 98.243571 
L 63.221847 98.533773 
L 64.414733 99.330511 
L 65.607619 98.832048 
L 67.993391 100.083596 
L 69.186277 100.040685 
L 70.379163 99.340111 
L 71.572049 100.603723 
L 72.764935 100.774125 
L 73.957821 99.965076 
L 75.150708 99.781299 
L 76.343594 100.693169 
L 77.53648 100.771042 
L 78.729366 101.394406 
L 79.922252 100.302412 
L 81.115138 100.985296 
L 82.308024 100.850765 
L 83.50091 101.243372 
L 84.693796 101.149042 
L 88.272454 101.83581 
L 89.46534 101.726811 
L 90.658226 102.141882 
L 91.851112 101.99202 
L 93.043998 102.26401 
L 94.236884 102.221174 
L 95.42977 103.14084 
L 97.815542 103.008251 
L 101.394201 103.075755 
L 102.587087 103.671767 
L 103.779973 104.606472 
L 104.972859 103.800397 
L 106.165745 104.298396 
L 107.358631 104.011291 
L 108.551517 104.588351 
L 109.744403 104.765394 
L 110.937289 104.033279 
L 113.323061 105.160327 
L 114.515947 105.730238 
L 115.708833 105.285582 
L 116.901719 105.81332 
L 118.094605 105.292593 
L 119.287491 106.497838 
L 120.480377 104.944517 
L 122.86615 107.12815 
L 124.059036 106.690228 
L 125.251922 106.378331 
L 126.444808 106.260688 
L 127.637694 107.073081 
L 128.83058 107.024821 
L 130.023466 106.776684 
L 131.216352 106.736129 
L 132.409238 107.298906 
L 133.602124 107.318197 
L 134.79501 107.571404 
L 135.987896 107.541465 
L 137.180782 108.170205 
L 138.373668 108.032161 
L 139.566554 109.424018 
L 140.75944 108.986173 
L 141.952326 108.384982 
L 144.338098 109.048777 
L 146.723871 109.539966 
L 147.916757 108.234982 
L 150.302529 110.410526 
L 151.495415 110.104114 
L 152.688301 109.314417 
L 153.881187 109.435189 
L 156.266959 110.766244 
L 157.459845 111.141408 
L 158.652731 111.072409 
L 161.038503 110.697229 
L 162.231389 110.950636 
L 163.424275 110.62612 
L 164.617161 111.033441 
L 165.810047 111.31204 
L 167.002933 111.136416 
L 168.195819 112.021752 
L 169.388705 111.201269 
L 170.581592 111.232733 
L 171.774478 111.39104 
L 174.16025 110.866891 
L 175.353136 111.131454 
L 176.546022 111.138973 
L 177.738908 110.75062 
L 178.931794 109.947641 
L 180.12468 109.645143 
L 181.317566 109.753172 
L 182.510452 108.466401 
L 183.703338 107.585857 
L 184.896224 107.635441 
L 186.08911 106.412784 
L 187.281996 105.639004 
L 188.474882 105.963413 
L 189.667768 105.169912 
L 190.860654 105.220635 
L 192.05354 104.917305 
L 193.246426 104.899971 
L 194.439313 105.191051 
L 195.632199 105.620052 
L 196.825085 106.807208 
L 199.210857 107.429338 
L 201.596629 109.603233 
L 202.789515 111.330562 
L 205.175287 112.71382 
L 206.368173 114.029945 
L 207.561059 114.549993 
L 208.753945 115.391339 
L 209.946831 115.23841 
L 211.139717 116.279602 
L 212.332603 118.198734 
L 213.525489 117.976237 
L 214.718375 118.270014 
L 215.911261 119.095858 
L 217.104147 119.293949 
L 218.297034 119.866679 
L 219.48992 119.673812 
L 220.682806 120.076773 
L 223.068578 121.5396 
L 224.261464 121.519446 
L 225.45435 122.022192 
L 226.647236 122.109373 
L 227.840122 121.841158 
L 229.033008 122.237925 
L 230.225894 122.805416 
L 231.41878 122.623905 
L 232.611666 122.751564 
L 233.804552 123.179363 
L 236.190324 123.515652 
L 237.38321 124.387428 
L 238.576096 123.675051 
L 239.768982 125.182563 
L 240.961868 124.78572 
L 242.154755 124.731267 
L 243.347641 124.914612 
L 244.540527 125.225013 
L 245.733413 125.718345 
L 246.926299 125.238635 
L 248.119185 126.233648 
L 249.312071 126.067098 
L 250.504957 126.146236 
L 251.697843 126.610306 
L 252.890729 126.601169 
L 254.083615 127.406551 
L 256.469387 127.668972 
L 258.855159 128.254799 
L 260.048045 127.998973 
L 261.240931 128.982229 
L 262.433817 128.912306 
L 263.626703 128.646219 
L 268.398248 129.91997 
L 269.591134 130.776539 
L 270.78402 130.320497 
L 271.976906 130.539219 
L 273.169792 131.072581 
L 275.555564 130.917572 
L 276.74845 131.397051 
L 277.941336 130.896955 
L 279.134222 132.760402 
L 280.327108 132.011584 
L 282.71288 133.215582 
L 285.098652 132.012061 
L 286.291538 132.943469 
L 287.484424 133.653473 
L 288.67731 133.529959 
L 289.870197 133.216645 
L 291.063083 133.627556 
L 292.255969 133.896401 
L 293.448855 134.033614 
L 294.641741 134.630952 
L 295.834627 134.211041 
L 297.027513 135.318644 
L 298.220399 134.879936 
L 299.413285 134.987409 
L 300.606171 134.373138 
L 301.799057 135.753299 
L 302.991943 135.709478 
L 304.184829 135.289337 
L 305.377715 135.906768 
L 306.570601 135.981482 
L 307.763487 136.42637 
L 308.956373 136.33204 
L 310.149259 137.201521 
L 311.342145 136.522272 
L 313.727918 137.379117 
L 314.920804 136.97608 
L 316.11369 137.857703 
L 317.306576 137.955515 
L 318.499462 138.594332 
L 319.692348 138.848278 
L 320.885234 138.976939 
L 322.07812 138.740096 
L 323.271006 138.661328 
L 324.463892 139.732658 
L 325.656778 140.050796 
L 326.849664 140.140735 
L 328.04255 140.408702 
L 329.235436 140.810076 
L 330.428322 140.563526 
L 331.621208 140.738812 
L 332.814094 140.775623 
L 334.00698 141.550496 
L 335.199866 142.645803 
L 336.392752 141.255456 
L 337.585639 142.712599 
L 338.778525 142.360532 
L 339.971411 142.25161 
L 341.164297 143.46422 
L 342.357183 143.019626 
L 343.550069 143.031198 
L 344.742955 143.5904 
L 347.128727 144.271312 
L 348.321613 144.25857 
L 349.514499 144.393994 
L 350.707385 144.906031 
L 351.900271 144.749389 
L 353.093157 145.108096 
L 354.286043 145.978286 
L 355.478929 145.310656 
L 357.864701 145.814834 
L 360.250473 146.977969 
L 363.829132 146.609153 
L 365.022018 147.012329 
L 366.214904 147.735446 
L 367.40779 147.772426 
L 368.600676 148.165926 
L 369.793562 148.193245 
L 370.986448 147.660546 
L 372.179334 148.330827 
L 373.37222 149.226194 
L 374.565106 149.250785 
L 375.757992 149.492127 
L 376.950878 149.272296 
L 378.143764 149.259075 
L 379.33665 150.032962 
L 380.529536 149.506441 
L 381.722422 150.339188 
L 382.915308 150.426107 
L 384.108194 150.976696 
L 385.301081 151.268778 
L 386.493967 151.139147 
L 388.879739 151.14833 
L 390.072625 152.019213 
L 391.265511 152.231079 
L 392.458397 152.292527 
L 393.651283 152.682252 
L 394.844169 152.461743 
L 396.037055 152.61125 
L 397.229941 153.732644 
L 399.615713 153.157849 
L 400.808599 153.687296 
L 402.001485 154.370243 
L 403.194371 154.015557 
L 404.387257 154.024925 
L 405.580143 154.623511 
L 406.773029 154.358132 
L 407.965915 154.855669 
L 409.158802 154.909553 
L 410.351688 155.693332 
L 411.544574 155.891546 
L 412.73746 155.645889 
L 413.930346 155.579726 
L 415.123232 156.131408 
L 416.316118 156.308867 
L 417.509004 156.601319 
L 418.70189 156.374415 
L 421.087662 157.401107 
L 422.280548 157.317532 
L 423.473434 158.147998 
L 424.66632 157.417672 
L 425.859206 157.64963 
L 427.052092 158.065009 
L 428.244978 158.080048 
L 429.437864 158.6772 
L 430.63075 159.139222 
L 433.016523 159.28158 
L 434.209409 158.660945 
L 435.402295 159.483029 
L 436.595181 159.852569 
L 437.788067 159.546173 
L 438.980953 160.11217 
L 440.173839 159.620534 
L 441.366725 160.112108 
L 442.559611 161.524189 
L 444.945383 161.22626 
L 446.138269 161.502062 
L 447.331155 161.606547 
L 448.524041 161.323625 
L 449.716927 162.294231 
L 450.909813 161.985031 
L 453.295585 162.112597 
L 454.488471 162.768717 
L 455.681357 162.603871 
L 456.874244 162.940228 
L 458.06713 163.124197 
L 459.260016 163.74729 
L 460.452902 164.137616 
L 461.645788 163.212988 
L 465.224446 163.901343 
L 466.417332 164.628489 
L 467.610218 164.295444 
L 468.803104 164.400514 
L 469.99599 164.998122 
L 472.381762 165.07259 
L 473.574648 165.568625 
L 474.767534 165.258932 
L 475.96042 165.629912 
L 477.153306 166.3591 
L 478.346192 166.741975 
L 479.539078 166.458684 
L 483.117737 167.399283 
L 484.310623 167.100082 
L 485.503509 167.22177 
L 486.696395 167.659753 
L 487.889281 167.344405 
L 490.275053 168.569851 
L 491.467939 168.340574 
L 492.660825 168.346129 
L 493.853711 168.755191 
L 495.046597 168.649096 
L 496.239483 168.908775 
L 497.432369 169.559002 
L 498.625255 169.146804 
L 499.818141 169.496975 
L 501.011027 168.909869 
L 502.203913 169.701067 
L 503.396799 170.115499 
L 504.589686 170.029891 
L 505.782572 170.332611 
L 506.975458 169.856129 
L 508.168344 170.809293 
L 509.36123 170.343351 
L 510.554116 170.983139 
L 511.747002 170.804941 
L 512.939888 171.404998 
L 516.518546 171.883352 
L 517.711432 171.47137 
L 518.904318 171.975632 
L 520.097204 172.002389 
L 521.29009 172.543232 
L 522.482976 172.346883 
L 523.675862 173.291017 
L 524.868748 173.397774 
L 526.061634 173.206472 
L 526.061634 173.206472 
" clip-path="url(#p874b230ca1)" style="fill: none; stroke: #48c16e; stroke-width: 1.5; stroke-linecap: square"/>
   </g>
   <g id="line2d_36">
    <path d="M 48.90125 289.467241 
L 526.05567 289.467241 
" clip-path="url(#p874b230ca1)" style="fill: none; stroke-dasharray: 1.85,0.8; stroke-dashoffset: 0; stroke: #808080; stroke-opacity: 0.5; stroke-width: 0.5"/>
   </g>
   <g id="line2d_37">
    <path d="M 48.907214 32.29327 
L 50.1001 32.096366 
L 51.292987 32.122145 
L 52.485873 33.008313 
L 53.678759 32.755445 
L 54.871645 32.984985 
L 56.064531 32.687602 
L 57.257417 32.868481 
L 58.450303 32.424412 
L 59.643189 33.260748 
L 60.836075 33.849165 
L 63.221847 33.323291 
L 64.414733 33.08121 
L 65.607619 33.886962 
L 67.993391 33.711522 
L 69.186277 34.101015 
L 70.379163 34.341741 
L 71.572049 34.253559 
L 72.764935 35.183579 
L 73.957821 34.794378 
L 75.150708 35.024163 
L 76.343594 34.937953 
L 77.53648 35.196953 
L 78.729366 35.01837 
L 79.922252 35.471207 
L 81.115138 35.548574 
L 82.308024 36.354079 
L 83.50091 36.169332 
L 84.693796 35.59939 
L 85.886682 35.957574 
L 87.079568 35.652903 
L 88.272454 36.385496 
L 89.46534 36.34756 
L 90.658226 37.048874 
L 91.851112 37.276287 
L 93.043998 36.905345 
L 94.236884 37.011216 
L 95.42977 37.370587 
L 96.622656 37.339431 
L 97.815542 38.038602 
L 99.008429 37.600434 
L 100.201315 37.858139 
L 101.394201 38.485507 
L 102.587087 38.110421 
L 104.972859 37.964796 
L 106.165745 38.020452 
L 108.551517 38.555431 
L 109.744403 38.207756 
L 110.937289 39.08206 
L 112.130175 39.1628 
L 113.323061 38.670886 
L 114.515947 39.385112 
L 115.708833 39.847133 
L 116.901719 40.131573 
L 118.094605 40.56142 
L 119.287491 39.705622 
L 120.480377 39.640845 
L 121.673263 40.441127 
L 122.86615 40.503639 
L 124.059036 40.902301 
L 125.251922 39.844391 
L 126.444808 40.295856 
L 128.83058 40.309262 
L 130.023466 41.15107 
L 131.216352 40.761237 
L 132.409238 41.123951 
L 133.602124 41.726573 
L 134.79501 41.942923 
L 135.987896 41.534446 
L 137.180782 41.407264 
L 139.566554 42.494436 
L 140.75944 42.478858 
L 141.952326 42.709691 
L 143.145212 42.307254 
L 144.338098 42.531215 
L 145.530984 42.999462 
L 146.723871 43.064624 
L 147.916757 44.011177 
L 149.109643 44.217034 
L 150.302529 43.602562 
L 151.495415 43.616399 
L 152.688301 43.913735 
L 153.881187 43.679943 
L 155.074073 44.173906 
L 156.266959 43.9411 
L 157.459845 44.321965 
L 158.652731 44.351411 
L 162.231389 45.282695 
L 163.424275 44.442998 
L 165.810047 45.856149 
L 167.002933 45.664977 
L 168.195819 46.15803 
L 169.388705 45.54946 
L 170.581592 45.366686 
L 171.774478 45.424421 
L 172.967364 46.039047 
L 174.16025 45.920248 
L 175.353136 45.065266 
L 176.546022 44.473938 
L 177.738908 45.13824 
L 180.12468 44.334847 
L 181.317566 44.306095 
L 182.510452 43.970561 
L 183.703338 43.477754 
L 186.08911 41.289376 
L 187.281996 41.079882 
L 188.474882 39.94453 
L 189.667768 39.266112 
L 190.860654 39.560367 
L 192.05354 39.396098 
L 194.439313 39.437593 
L 195.632199 38.995926 
L 196.825085 39.59707 
L 198.017971 39.492293 
L 199.210857 40.461312 
L 200.403743 41.273535 
L 201.596629 42.387194 
L 203.982401 43.91962 
L 205.175287 45.500215 
L 207.561059 48.233189 
L 208.753945 48.419784 
L 209.946831 49.658327 
L 211.139717 50.573956 
L 212.332603 50.356805 
L 214.718375 52.203996 
L 215.911261 52.363781 
L 217.104147 52.396046 
L 220.682806 53.669396 
L 221.875692 54.381358 
L 224.261464 55.073549 
L 225.45435 54.858448 
L 227.840122 55.78061 
L 229.033008 55.838407 
L 230.225894 56.038269 
L 231.41878 56.863899 
L 232.611666 57.141913 
L 233.804552 57.10658 
L 236.190324 58.034121 
L 237.38321 58.316187 
L 238.576096 58.268329 
L 239.768982 58.967222 
L 240.961868 58.49853 
L 242.154755 59.133372 
L 243.347641 59.110028 
L 244.540527 58.942015 
L 245.733413 59.248257 
L 246.926299 60.466168 
L 248.119185 60.227785 
L 250.504957 60.960253 
L 252.890729 60.723273 
L 254.083615 61.594926 
L 256.469387 61.221333 
L 257.662273 62.068457 
L 258.855159 62.506718 
L 262.433817 63.217632 
L 263.626703 62.771542 
L 264.819589 62.918262 
L 266.012476 63.562934 
L 267.205362 63.602009 
L 268.398248 63.973398 
L 269.591134 63.645584 
L 270.78402 64.408685 
L 271.976906 64.096989 
L 273.169792 64.794543 
L 274.362678 65.75686 
L 275.555564 65.384916 
L 276.74845 66.176846 
L 277.941336 66.19922 
L 279.134222 65.637861 
L 280.327108 65.773239 
L 281.519994 66.428867 
L 282.71288 66.311454 
L 283.905766 67.334927 
L 285.098652 67.802279 
L 286.291538 67.057421 
L 288.67731 67.861093 
L 289.870197 68.567014 
L 291.063083 68.251373 
L 292.255969 68.53293 
L 293.448855 68.980914 
L 294.641741 69.667883 
L 299.413285 68.98301 
L 300.606171 70.014371 
L 301.799057 70.503126 
L 302.991943 70.024972 
L 304.184829 69.969193 
L 305.377715 70.256854 
L 306.570601 70.703065 
L 307.763487 70.085897 
L 308.956373 71.055964 
L 310.149259 71.02544 
L 312.535031 72.56437 
L 313.727918 71.96281 
L 314.920804 71.667246 
L 316.11369 72.085522 
L 317.306576 72.127911 
L 319.692348 73.448243 
L 320.885234 73.559044 
L 322.07812 73.991712 
L 324.463892 74.131682 
L 325.656778 74.973397 
L 326.849664 74.676308 
L 328.04255 75.202057 
L 329.235436 74.624843 
L 330.428322 74.696292 
L 331.621208 76.529785 
L 332.814094 76.439137 
L 334.00698 75.915035 
L 335.199866 76.32174 
L 336.392752 76.435562 
L 337.585639 76.972422 
L 338.778525 77.296969 
L 339.971411 76.531834 
L 341.164297 77.526107 
L 342.357183 78.15118 
L 343.550069 77.939762 
L 344.742955 78.26756 
L 345.935841 78.817424 
L 347.128727 78.451428 
L 349.514499 80.005274 
L 350.707385 79.639278 
L 351.900271 79.708292 
L 353.093157 80.322394 
L 354.286043 80.500577 
L 355.478929 81.520675 
L 356.671815 81.286298 
L 357.864701 80.9087 
L 359.057587 81.285866 
L 360.250473 81.94701 
L 361.44336 81.248547 
L 363.829132 81.68858 
L 365.022018 82.691575 
L 366.214904 82.56501 
L 367.40779 82.916754 
L 369.793562 83.079173 
L 372.179334 83.590023 
L 373.37222 83.058279 
L 374.565106 83.663583 
L 375.757992 84.642372 
L 376.950878 85.018553 
L 378.143764 84.897412 
L 379.33665 85.335843 
L 380.529536 84.894407 
L 381.722422 85.50367 
L 384.108194 85.971069 
L 385.301081 86.501904 
L 386.493967 86.521457 
L 387.686853 87.27479 
L 388.879739 86.708469 
L 390.072625 86.576481 
L 391.265511 87.013617 
L 392.458397 86.973663 
L 393.651283 87.744531 
L 394.844169 88.318878 
L 396.037055 87.968631 
L 397.229941 88.796169 
L 398.422827 88.8311 
L 399.615713 88.655598 
L 400.808599 88.637633 
L 402.001485 88.863982 
L 403.194371 89.323183 
L 404.387257 89.951815 
L 405.580143 89.579132 
L 406.773029 89.736914 
L 407.965915 90.757382 
L 409.158802 90.219275 
L 412.73746 91.261683 
L 413.930346 91.40452 
L 415.123232 91.160728 
L 416.316118 91.192809 
L 418.70189 91.811255 
L 419.894776 92.8316 
L 421.087662 93.074344 
L 422.280548 92.922325 
L 423.473434 93.347396 
L 424.66632 93.44601 
L 425.859206 94.096537 
L 427.052092 94.117385 
L 428.244978 93.885473 
L 429.437864 94.384428 
L 430.63075 94.544152 
L 431.823636 94.425523 
L 433.016523 94.649837 
L 434.209409 95.448687 
L 436.595181 95.111382 
L 437.788067 96.051125 
L 438.980953 95.564157 
L 440.173839 95.881663 
L 441.366725 95.781016 
L 442.559611 96.645503 
L 443.752497 96.521527 
L 444.945383 97.150206 
L 446.138269 96.982593 
L 447.331155 97.382426 
L 448.524041 97.455601 
L 449.716927 97.892321 
L 450.909813 97.761688 
L 452.102699 97.282765 
L 453.295585 98.648473 
L 454.488471 98.867904 
L 455.681357 98.668242 
L 456.874244 99.148183 
L 458.06713 99.187104 
L 459.260016 99.563563 
L 460.452902 99.677524 
L 461.645788 99.433131 
L 464.03156 99.824073 
L 466.417332 101.004049 
L 468.803104 101.304736 
L 469.99599 101.731687 
L 471.188876 101.654846 
L 472.381762 101.164812 
L 473.574648 101.896134 
L 474.767534 101.623228 
L 475.96042 102.714828 
L 477.153306 102.388255 
L 478.346192 102.596561 
L 479.539078 102.27877 
L 480.731965 102.54277 
L 481.924851 103.237235 
L 483.117737 103.385687 
L 484.310623 103.41044 
L 487.889281 103.991307 
L 489.082167 103.512798 
L 491.467939 104.807898 
L 492.660825 104.474976 
L 493.853711 105.18438 
L 495.046597 105.55667 
L 496.239483 105.640492 
L 497.432369 105.386523 
L 498.625255 105.673958 
L 499.818141 106.313292 
L 503.396799 106.17262 
L 504.589686 106.546807 
L 505.782572 106.607701 
L 506.975458 107.280092 
L 508.168344 107.691466 
L 509.36123 107.852884 
L 510.554116 107.628515 
L 511.747002 107.806513 
L 512.939888 108.375414 
L 514.132774 108.357386 
L 515.32566 107.960481 
L 516.518546 108.999031 
L 517.711432 109.612917 
L 518.904318 108.999554 
L 521.29009 108.745856 
L 522.482976 109.702941 
L 523.675862 109.8565 
L 524.868748 109.208339 
L 526.061634 109.938659 
L 526.061634 109.938659 
" clip-path="url(#p874b230ca1)" style="fill: none; stroke: #9bd93c; stroke-width: 1.5; stroke-linecap: square"/>
   </g>
   <g id="line2d_38">
    <path d="M 48.90125 230.298966 
L 526.05567 230.298966 
" clip-path="url(#p874b230ca1)" style="fill: none; stroke-dasharray: 1.85,0.8; stroke-dashoffset: 0; stroke: #808080; stroke-opacity: 0.5; stroke-width: 0.5"/>
   </g>
   <g id="line2d_39">
    <path d="M 192.047576 595.17 
L 192.047576 23.21 
" clip-path="url(#p874b230ca1)" style="fill: none; stroke-dasharray: 1.5,2.475; stroke-dashoffset: 0; stroke: #2ca02c; stroke-opacity: 0.5; stroke-width: 1.5"/>
   </g>
   <g id="line2d_40">
    <path d="M 394.838204 595.17 
L 394.838204 23.21 
" clip-path="url(#p874b230ca1)" style="fill: none; stroke-dasharray: 1.5,2.475; stroke-dashoffset: 0; stroke: #9467bd; stroke-opacity: 0.5; stroke-width: 1.5"/>
   </g>
   <g id="patch_4">
    <path d="M 48.90125 595.17 
L 48.90125 23.21 
" style="fill: none; stroke: #000000; stroke-width: 0.8; stroke-linejoin: miter; stroke-linecap: square"/>
   </g>
   <g id="patch_5">
    <path d="M 526.05567 595.17 
L 526.05567 23.21 
" style="fill: none; stroke: #000000; stroke-width: 0.8; stroke-linejoin: miter; stroke-linecap: square"/>
   </g>
   <g id="patch_6">
    <path d="M 48.90125 595.17 
L 526.05567 595.17 
" style="fill: none; stroke: #000000; stroke-width: 0.8; stroke-linejoin: miter; stroke-linecap: square"/>
   </g>
   <g id="patch_7">
    <path d="M 48.90125 23.21 
L 526.05567 23.21 
" style="fill: none; stroke: #000000; stroke-width: 0.8; stroke-linejoin: miter; stroke-linecap: square"/>
   </g>
   <g id="text_18">
    <text style="fill: #440154; font: 700 11px 'DejaVu Sans', 'Arial', 'Helvetica', sans-serif; text-anchor: start" x="532.026065" y="578.482554" transform="rotate(-0 532.026065 578.482554)">0°</text>
   </g>
   <g id="text_19">
    <text style="fill: #46327e; font: 700 11px 'DejaVu Sans', 'Arial', 'Helvetica', sans-serif; text-anchor: start" x="532.026065" y="519.314278" transform="rotate(-0 532.026065 519.314278)">30°</text>
   </g>
   <g id="text_20">
    <text style="fill: #375b8d; font: 700 11px 'DejaVu Sans', 'Arial', 'Helvetica', sans-serif; text-anchor: start" x="532.026065" y="460.146002" transform="rotate(-0 532.026065 460.146002)">60°</text>
   </g>
   <g id="text_21">
    <text style="fill: #277e8e; font: 700 11px 'DejaVu Sans', 'Arial', 'Helvetica', sans-serif; text-anchor: start" x="532.026065" y="400.977726" transform="rotate(-0 532.026065 400.977726)">90°</text>
   </g>
   <g id="text_22">
    <text style="fill: #1fa188; font: 700 11px 'DejaVu Sans', 'Arial', 'Helvetica', sans-serif; text-anchor: start" x="532.026065" y="341.80945" transform="rotate(-0 532.026065 341.80945)">120°</text>
   </g>
   <g id="text_23">
    <text style="fill: #48c16e; font: 700 11px 'DejaVu Sans', 'Arial', 'Helvetica', sans-serif; text-anchor: start" x="532.026065" y="282.641175" transform="rotate(-0 532.026065 282.641175)">150°</text>
   </g>
   <g id="text_24">
    <text style="fill: #9bd93c; font: 700 11px 'DejaVu Sans', 'Arial', 'Helvetica', sans-serif; text-anchor: start" x="532.026065" y="223.472899" transform="rotate(-0 532.026065 223.472899)">180°</text>
   </g>
   <g id="text_25">
    <text style="fill: #2ca02c; font: 700 9px 'DejaVu Sans', 'Arial', 'Helvetica', sans-serif" transform="translate(194.531013 121.823793) rotate(-90)">calcite (104)</text>
   </g>
   <g id="text_26">
    <text style="fill: #9467bd; font: 700 9px 'DejaVu Sans', 'Arial', 'Helvetica', sans-serif" transform="translate(397.321642 121.823793) rotate(-90)">vaterite (110)</text>
   </g>
   <g id="text_27">
    <!-- Azimuthal dependence of symmetric 2$\theta-\theta$ diffraction scans (SH-125-G) -->
    <g transform="translate(24.55346 17.21)">
     <text>
      <tspan style="font: 700 13px 'DejaVu Sans'" x="0 10.061035 17.627441 22.083496 35.629395 44.884277 51.098633 60.353516 69.125977 73.582031 78.10791 87.413574 96.230469 105.536133 114.353027 123.60791 132.913574 141.730469 150.985352 158.691406 167.508301 172.03418 180.965332 186.621094 191.146973 198.884766 207.358887 220.904785 234.450684 243.267578 249.481934 255.893066 260.349121 268.055176 272.581055 313.491699 318.017578 327.323242 331.779297 337.435059 343.09082 349.501953 358.274414 365.980469 372.194824 376.650879 385.582031 394.836914 399.362793 407.100586 414.806641 423.579102 432.833984 440.571777 445.097656 451.039062 460.401855 471.281738 476.677246 485.722656 494.768066 503.813477 509.208984 519.879395" y="-0.015625">Azimuthal dependence of symmetric 2 diffraction scans (SH-125-G)</tspan>
      <tspan style="font: oblique 13px 'DejaVu Sans'" x="281.626465 305.538086" y="-0.015625">θθ</tspan>
      <tspan style="font: 13px 'DejaVu Sans'" x="292.112793" y="-0.015625">−</tspan>
     </text>
    </g>
   </g>
   <g id="legend_1">
    <g id="patch_8">
     <path d="M 56.60125 589.67 
L 203.349844 589.67 
Q 205.549844 589.67 205.549844 587.47 
L 205.549844 459.234062 
Q 205.549844 457.034062 203.349844 457.034062 
L 56.60125 457.034062 
Q 54.40125 457.034062 54.40125 459.234062 
L 54.40125 587.47 
Q 54.40125 589.67 56.60125 589.67 
z
" style="fill: #ffffff; opacity: 0.5; stroke: #cccccc; stroke-linejoin: miter"/>
    </g>
    <g id="line2d_41">
     <path d="M 58.80125 465.944062 
L 69.80125 465.944062 
L 80.80125 465.944062 
" style="fill: none; stroke: #440154; stroke-width: 1.5; stroke-linecap: square"/>
    </g>
    <g id="text_28">
     <!-- $\phi$ = 0° -->
     <g transform="translate(89.60125 469.794062)">
      <text>
       <tspan style="font: oblique 11px 'DejaVu Sans'" x="0" y="-0.640625">ϕ</tspan>
       <tspan style="font: 11px 'DejaVu Sans'" x="7.256348 10.75293 19.969727 23.466309 30.464844" y="-0.640625"> = 0°</tspan>
      </text>
     </g>
    </g>
    <g id="line2d_42">
     <path d="M 58.80125 482.114062 
L 69.80125 482.114062 
L 80.80125 482.114062 
" style="fill: none; stroke: #46327e; stroke-width: 1.5; stroke-linecap: square"/>
    </g>
    <g id="text_29">
     <!-- $\phi$ = 30° -->
     <g transform="translate(89.60125 485.964062)">
      <text>
       <tspan style="font: oblique 11px 'DejaVu Sans'" x="0" y="-0.640625">ϕ</tspan>
       <tspan style="font: 11px 'DejaVu Sans'" x="7.256348 10.75293 19.969727 23.466309 30.464844 37.463379" y="-0.640625"> = 30°</tspan>
      </text>
     </g>
    </g>
    <g id="line2d_43">
     <path d="M 58.80125 498.284062 
L 69.80125 498.284062 
L 80.80125 498.284062 
" style="fill: none; stroke: #375b8d; stroke-width: 1.5; stroke-linecap: square"/>
    </g>
    <g id="text_30">
     <!-- $\phi$ = 60° -->
     <g transform="translate(89.60125 502.134062)">
      <text>
       <tspan style="font: oblique 11px 'DejaVu Sans'" x="0" y="-0.640625">ϕ</tspan>
       <tspan style="font: 11px 'DejaVu Sans'" x="7.256348 10.75293 19.969727 23.466309 30.464844 37.463379" y="-0.640625"> = 60°</tspan>
      </text>
     </g>
    </g>
    <g id="line2d_44">
     <path d="M 58.80125 514.454062 
L 69.80125 514.454062 
L 80.80125 514.454062 
" style="fill: none; stroke: #277e8e; stroke-width: 1.5; stroke-linecap: square"/>
    </g>
    <g id="text_31">
     <!-- $\phi$ = 90° -->
     <g transform="translate(89.60125 518.304062)">
      <text>
       <tspan style="font: oblique 11px 'DejaVu Sans'" x="0" y="-0.640625">ϕ</tspan>
       <tspan style="font: 11px 'DejaVu Sans'" x="7.256348 10.75293 19.969727 23.466309 30.464844 37.463379" y="-0.640625"> = 90°</tspan>
      </text>
     </g>
    </g>
    <g id="line2d_45">
     <path d="M 58.80125 530.624062 
L 69.80125 530.624062 
L 80.80125 530.624062 
" style="fill: none; stroke: #1fa188; stroke-width: 1.5; stroke-linecap: square"/>
    </g>
    <g id="text_32">
     <!-- $\phi$ = 120° -->
     <g transform="translate(89.60125 534.474062)">
      <text>
       <tspan style="font: oblique 11px 'DejaVu Sans'" x="0" y="-0.640625">ϕ</tspan>
       <tspan style="font: 11px 'DejaVu Sans'" x="7.256348 10.75293 19.969727 23.466309 30.464844 37.463379 44.461914" y="-0.640625"> = 120°</tspan>
      </text>
     </g>
    </g>
    <g id="line2d_46">
     <path d="M 58.80125 546.794062 
L 69.80125 546.794062 
L 80.80125 546.794062 
" style="fill: none; stroke: #48c16e; stroke-width: 1.5; stroke-linecap: square"/>
    </g>
    <g id="text_33">
     <!-- $\phi$ = 150° -->
     <g transform="translate(89.60125 550.644062)">
      <text>
       <tspan style="font: oblique 11px 'DejaVu Sans'" x="0" y="-0.640625">ϕ</tspan>
       <tspan style="font: 11px 'DejaVu Sans'" x="7.256348 10.75293 19.969727 23.466309 30.464844 37.463379 44.461914" y="-0.640625"> = 150°</tspan>
      </text>
     </g>
    </g>
    <g id="line2d_47">
     <path d="M 58.80125 562.964062 
L 69.80125 562.964062 
L 80.80125 562.964062 
" style="fill: none; stroke: #9bd93c; stroke-width: 1.5; stroke-linecap: square"/>
    </g>
    <g id="text_34">
     <!-- $\phi$ = 180° -->
     <g transform="translate(89.60125 566.814062)">
      <text>
       <tspan style="font: oblique 11px 'DejaVu Sans'" x="0" y="-0.640625">ϕ</tspan>
       <tspan style="font: 11px 'DejaVu Sans'" x="7.256348 10.75293 19.969727 23.466309 30.464844 37.463379 44.461914" y="-0.640625"> = 180°</tspan>
      </text>
     </g>
    </g>
    <g id="patch_9">
     <path d="M 58.80125 582.982344 
L 80.80125 582.982344 
L 80.80125 575.282344 
L 58.80125 575.282344 
z
" style="fill: #9467bd; opacity: 0.08; stroke: #9467bd; stroke-linejoin: miter"/>
    </g>
    <g id="text_35">
     <text style="font: 11px 'DejaVu Sans', 'Arial', 'Helvetica', sans-serif; text-anchor: start" x="89.60125" y="582.982344" transform="rotate(-0 89.60125 582.982344)">vaterite (110) range</text>
    </g>
   </g>
  </g>
 </g>
 <defs>
  <clipPath id="p874b230ca1">
   <rect x="48.90125" y="23.21" width="477.15442" height="571.96"/>
  </clipPath>
 </defs>
</svg>
